<svg xmlns="http://www.w3.org/2000/svg" xmlns:xlink="http://www.w3.org/1999/xlink" xmlns:fi="http://pattern.flaticon.com/" width="700" height="350"><rect id="backgroundrect" width="100%" height="100%" x="0" y="0" fill="none" stroke="none"/><defs><g id="L1_530"><path d="M3.738656393520227,26.256523573009233 l-8.642564733505056,13.636137135076414 V2.8606117902833006 h-2.819390334175192 v22.861936183419875 l-8.642394941855903,-13.636137135076414 l-2.381497671011216,1.5092779693154639 l11.242923840273681,17.739322128492713 c0.2584228900099152,0.40783954126400546 0.7078613853162526,0.6550561824298639 1.190748835505608,0.6550561824298639 c0.4828874501893554,0 0.9321561538465404,-0.24721664116585843 1.190748835505608,-0.6550561824298639 l11.243093631922834,-17.739322128492713 L3.738656393520227,26.256523573009233 z" fill="#9ad6d4" stroke-width="0" id="svg_1"/><path d="M-8.928973595166966,-10.363329043705505 c-5.086108850359402,-8.04812416982259 -15.733573377055704,-10.44931767213548 -23.78152775522914,-5.3632088217760785 c-8.04812416982259,5.08593905871025 -10.44931767213548,15.73340358540655 -5.3632088217760785,23.78135796357999 c4.920731784084989,7.786475238478779 17.848837742195997,11.114900936812791 26.8021211936499,11.518495686847988 l0.08370728303212104,5.196133839010141 l5.82011814964512,-3.688553786186201 l-4.6611203525310065,-2.2925268468553712 C-12.148778903602572,11.165555309968823 -6.094621563117297,-1.2583476975109846 -8.928973595166966,-10.363329043705505 z" fill="#ffaa0e" stroke-width="0" id="svg_2"/><path d="M12.914382484987808,-4.510419422042581 c5.086108850359402,-8.04812416982259 15.733573377055704,-10.44931767213548 23.78152775522914,-5.3632088217760785 c8.04812416982259,5.086108850359402 10.44931767213548,15.733573377055704 5.3632088217760785,23.78152775522914 c-4.920731784084989,7.786475238478779 -17.848837742195997,11.114900936812791 -26.8021211936499,11.518495686847988 l-0.08370728303212104,5.196133839010141 l-5.82011814964512,-3.688553786186201 l4.6611203525310065,-2.2925268468553712 C4.938373500495867,15.744043997594517 5.907270948867502,1.957549708720478 12.914382484987808,-4.510419422042581 z" fill="#57bab7" stroke-width="0" id="svg_3"/><path d="M-37.8385227729198,-0.054079289273971654 c-0.46692703516903206,0 -0.9236665713889217,-0.23176560109299227 -1.192107168698827,-0.6552259740790163 c-3.839838145580967,-6.058845208353359 -2.034952915091218,-14.112402710948825 4.02372250161299,-17.952410648178944 c0.6579426404654543,-0.4164989153707766 1.5286342173188348,-0.2214083104946974 1.9454727159879162,0.43602495502329974 c0.41666870701992903,0.6576030571671495 0.2215781021438498,1.5284644256696824 -0.43602495502329974,1.9454727159879162 C-34.70126335639509,-13.38094482798855 -37.80536854530956,-7.451686800888844 -36.069279483074766,-1.9001022952730295 c0.41666870701992903,0.6577728488163019 0.2215781021438498,1.5286342173188348 -0.43602495502329974,1.9454727159879162 C-37.30028277606817,0.01407314824187722 -37.58043946620819,0.015073924339354505 -37.8385227729198,-0.054079289273971654 z" fill="#ffffff" stroke-width="0" id="svg_4"/><path d="M28.27320240671766,-14.668987245675638 C31.63423057046658,-27.21251511845652 24.190384902394303,-40.10563401925917 11.646857029613432,-43.46666218300808 S-13.789789743970086,-39.38384467868473 -17.150817907719002,-26.840316805903853 c0,12.11921854154909 12.023116468128848,24.906906805811087 21.70395713620068,31.665463400321386 l-3.244378832003587,5.305989036011728 h8.505203289340782 l-3.244378832003587,-5.305989036011728 C9.576470165663654,7.01638070753026 25.025867585613295,-2.5497687041265493 28.27320240671766,-14.668987245675638 z" fill="#ff3776" stroke-width="0" id="svg_5"/><path d="M-11.88897993958847,-23.921961604163833 C-11.88897993958847,-23.921961604163833 -11.889319522886776,-23.922052595234376 -11.88897993958847,-23.921961604163833 c-0.7786645030127931,0 -1.4097800629121722,-0.6314551431976838 -1.4097800629121722,-1.4099498545613245 C-10.18902240341546,-35.89929725215033 0.32377820482961184,-41.96786083973017 10.513654237060262,-39.23749178592072 c0.7784947113636407,0 1.4097800629121722,0.631115559899379 1.4097800629121722,1.4097800629121722 s-0.631115559899379,1.4097800629121722 -1.4097800629121722,1.4097800629121722 c-8.635603275889807,0 -15.662091092762553,7.025469066977833 -15.663449425955774,15.661072342867639 C-10.310432555368855,-24.175418725770943 -11.110655019873985,-23.713410070477316 -11.88897993958847,-23.921961604163833 z" fill="#ffffff" stroke-width="0" id="svg_6"/></g><g id="L1_531"><g stroke-width="0" id="svg_7"><path d="M81.0164453125,348.047265625 c-0.9392968749999999,0 -1.82234375,0.3657421875 -2.4865234375,1.0299609375 C77.8657421875,349.7413671875 77.5,350.624453125 77.5,351.56375 c0,0.9392968749999999 0.3657421875,1.82234375 1.0299609375,2.4865625 c0.6641796875,0.6641796875 1.547265625,1.0299609375 2.4865234375,1.0299218749999999 h1.9259765625 c1.281796875,1.3533984374999999 3.095703125,2.1978125 5.1069140625,2.1978125 c3.8841796875,0 7.03296875,-3.1487890624999997 7.03296875,-7.03296875 V348.047265625 l-7.03296875,-0.4395703125 L81.0164453125,348.047265625 zM81.016484375,353.7615234375 c-0.58703125,0 -1.1389453125,-0.2286328125 -1.5540625,-0.64375 c-0.41511718750000004,-0.41511718750000004 -0.64375,-0.96703125 -0.64375,-1.5540625 s0.2286328125,-1.1389843750000002 0.6437109375,-1.5540625 c0.41507812499999996,-0.41507812499999996 0.9669921874999999,-0.64375 1.5540234375000002,-0.64375 v0.8791015624999999 c0,1.2810546875000002 0.34269531249999996,2.48203125 0.94109375,3.516484375 H81.016484375 z" fill="#fe5d26" stroke-width="0" id="svg_8"/><path d="M79.0384765625,358.43625 L79.296875,359.3407421875 c0.099609375,0.3487109375 0.47785156250000005,0.633984375 0.8404687499999999,0.633984375 h15.8241796875 c0.36265625,0 0.7408203125,-0.2852734375 0.8404687499999999,-0.633984375 l0.2584375,-0.9044921875 H79.0384765625 z" fill="#fe5d26" stroke-width="0" id="svg_9"/></g><path d="M97.1703125,358.7659375 H78.9285546875 c-0.182109375,0 -0.32968749999999997,-0.147578125 -0.32968749999999997,-0.32968749999999997 c0,-0.182109375 0.147578125,-0.32968749999999997 0.32968749999999997,-0.32968749999999997 H97.1703125 c0.182109375,0 0.32968749999999997,0.147578125 0.32968749999999997,0.32968749999999997 C97.5,358.618359375 97.352421875,358.7659375 97.1703125,358.7659375 z" fill="#f63e31" stroke-width="0" id="svg_10"/><g stroke-width="0" id="svg_11"><path d="M86.5109375,345.7395703125 c-0.18207031250000003,0 -0.32968749999999997,-0.147578125 -0.32968749999999997,-0.32968749999999997 c-0.00003906250000000001,-0.5020703125 0.1366015625,-0.76390625 0.2571875,-0.9949609375 c0.10187500000000001,-0.1953125 0.18238281250000002,-0.34953125 0.18238281250000002,-0.6898828125 c0,-0.3404296875 -0.08046875,-0.4947265625 -0.18238281250000002,-0.6900390624999999 c-0.120546875,-0.23109375000000001 -0.2571875,-0.4929296875 -0.2571875,-0.9950390625 c-0.00003906250000000001,-0.502109375 0.1366015625,-0.7639843749999999 0.2571875,-0.995078125 c0.10187500000000001,-0.1953125 0.18238281250000002,-0.3495703125 0.18238281250000002,-0.6899609375 c0,-0.182109375 0.147578125,-0.32968749999999997 0.32968749999999997,-0.32968749999999997 c0.182109375,0 0.32968749999999997,0.147578125 0.32968749999999997,0.32968749999999997 c0,0.5020703125 -0.1366015625,0.7639453125 -0.2571875,0.9950000000000001 c-0.10187500000000001,0.1953125 -0.18238281250000002,0.349609375 -0.18238281250000002,0.690078125 s0.08046875,0.4947265625 0.18238281250000002,0.6900390624999999 c0.120546875,0.231015625 0.2571484375,0.4929296875 0.2571875,0.9950390625 c0,0.5020703125 -0.1366015625,0.76390625 -0.2571875,0.9949609375 c-0.10187500000000001,0.19523437500000002 -0.18238281250000002,0.3494921875 -0.18238281250000002,0.6898828125 C86.840625,345.591953125 86.693046875,345.7395703125 86.5109375,345.7395703125 z" fill="#e4b780" stroke-width="0" id="svg_12"/><path d="M89.1483203125,345.7395703125 c-0.18207031250000003,0 -0.32968749999999997,-0.147578125 -0.32968749999999997,-0.32968749999999997 c-0.00003906250000000001,-0.5020703125 0.1366015625,-0.76390625 0.2571875,-0.9949609375 c0.10187500000000001,-0.1953125 0.18238281250000002,-0.34953125 0.18238281250000002,-0.6898828125 c0,-0.3404296875 -0.08046875,-0.4947265625 -0.18238281250000002,-0.6900390624999999 c-0.120546875,-0.23109375000000001 -0.2571875,-0.4929296875 -0.2571875,-0.9950390625 c-0.00003906250000000001,-0.502109375 0.1366015625,-0.7639843749999999 0.2571875,-0.995078125 c0.10187500000000001,-0.1953125 0.18238281250000002,-0.3495703125 0.18238281250000002,-0.6899609375 c0,-0.182109375 0.147578125,-0.32968749999999997 0.32968749999999997,-0.32968749999999997 s0.32968749999999997,0.147578125 0.32968749999999997,0.32968749999999997 c0,0.5020703125 -0.1366015625,0.7639453125 -0.2571875,0.9950000000000001 c-0.10187500000000001,0.1953125 -0.18238281250000002,0.349609375 -0.18238281250000002,0.690078125 s0.08046875,0.4947265625 0.18238281250000002,0.6900390624999999 c0.120546875,0.231015625 0.2571484375,0.4929296875 0.2571875,0.9950390625 c0,0.5020703125 -0.1366015625,0.76390625 -0.2571875,0.9949609375 c-0.10187500000000001,0.19523437500000002 -0.18238281250000002,0.3494921875 -0.18238281250000002,0.6898828125 C89.47796875,345.591953125 89.3304296875,345.7395703125 89.1483203125,345.7395703125 z" fill="#e4b780" stroke-width="0" id="svg_13"/></g><path d="M89.5878515625,352.00328125 c0,0.364140625 0.29519531250000003,0.6593359375000001 0.6593359375000001,0.6593359375000001 s0.6593359375000001,-0.29519531250000003 0.6593359375000001,-0.6593359375000001 V348.047265625 h1.3186718750000002 v2.6373437500000003 c0,0.364140625 0.29519531250000003,0.6593359375000001 0.6593359375000001,0.6593359375000001 s0.6593359375000001,-0.29519531250000003 0.6593359375000001,-0.6593359375000001 V348.047265625 h1.5384765624999999 v-1.3186718750000002 H81.0164453125 v1.3186718750000002 h8.5714453125 V352.00328125 z" fill="#991d06" stroke-width="0" id="svg_14"/></g><g id="L1_532"><path d="M194.8078125,336.9653125 c-0.25625000000000003,-0.25625000000000003 -0.671640625,-0.25625000000000003 -0.92796875,0 l-7.688203125,7.688203125 l-0.9651562499999999,-0.9651562499999999 l7.688203125,-7.688203125 c0.25625000000000003,-0.25625000000000003 0.25625000000000003,-0.671640625 0,-0.92796875 c-0.25625000000000003,-0.25625000000000003 -0.671640625,-0.25625000000000003 -0.92796875,0 l-7.688203125,7.688203125 l-0.9651562499999999,-0.9651562499999999 l7.688203125,-7.688203125 c0.25625000000000003,-0.25625000000000003 0.25625000000000003,-0.671640625 0,-0.92796875 c-0.25625000000000003,-0.25625000000000003 -0.671640625,-0.25625000000000003 -0.92796875,0 L182.405234375,340.8671875 l-0.9651562499999999,-0.9651562499999999 l7.688203125,-7.688203125 c0.25625000000000003,-0.25625000000000003 0.25625000000000003,-0.671640625 0,-0.92796875 c-0.25625000000000003,-0.25625000000000003 -0.671640625,-0.25625000000000003 -0.92796875,0 L178.65617187499998,340.83 c-1.4384375,1.438359375 -1.741953125,3.580859375 -0.9125,5.317421875 L158.290234375,363.414140625 c-0.06523437500000001,0.055390625000000006 -0.12906250000000002,0.11335937500000001 -0.190625,0.17500000000000002 c-1.21640625,1.216328125 -1.21640625,3.18859375 0,4.405 c1.21640625,1.216328125 3.18859375,1.216328125 4.405,0 c0.061562500000000006,-0.061562500000000006 0.11960937500000002,-0.125390625 0.17500000000000002,-0.190625 L179.94625,348.35 c1.7365625000000002,0.829375 3.879140625,0.5257812500000001 5.317499999999999,-0.9125 L194.8078125,337.893359375 C195.0640625,337.637109375 195.0640625,337.22171875 194.8078125,336.9653125 z" fill="#57bab7" stroke-width="0" id="svg_15"/><path d="M181.95703125,346.836796875 c-0.39437500000000003,0 -0.7916406249999999,-0.086015625 -1.1625,-0.26320312500000004 c-0.32695312499999996,-0.15617187500000002 -0.46546875,-0.54796875 -0.309296875,-0.874921875 c0.15617187500000002,-0.32703125 0.54796875,-0.46546875 0.874921875,-0.309296875 c0.53109375,0.25343750000000004 1.1675,0.1440625 1.5837499999999998,-0.271953125 c0.25640625,-0.25625000000000003 0.671953125,-0.256171875 0.9278906250000001,0.00007812500000000002 c0.25625000000000003,0.256328125 0.256171875,0.6717968750000001 -0.00007812500000000002,0.9278906250000001 C183.35359375,346.563515625 182.659765625,346.836796875 181.95703125,346.836796875 z" fill="#ffffff" stroke-width="0" id="svg_16"/><path d="M169.184296875,337.893359375 C164.591015625,333.300078125 158.971875,331.954140625 156.336328125,334.5896875 S155.046796875,342.84421875 159.64015625,347.4375 c2.255078125,2.255078125 5.708281250000001,2.5788281250000002 8.309453125000001,0.97484375 l17.211328125,19.391171874999998 c0.055390625000000006,0.06523437500000001 0.11335937500000001,0.128984375 0.17500000000000002,0.190625 c1.216328125,1.216328125 3.18859375,1.216328125 4.405,0 c1.216328125,-1.21640625 1.216328125,-3.18859375 0,-4.405 c-0.061562500000000006,-0.061562500000000006 -0.1253125,-0.11960937500000002 -0.190625,-0.17500000000000002 L170.158984375,346.2028125 C171.763046875,343.601640625 171.439375,340.148515625 169.184296875,337.893359375 z" fill="#9ad6d4" stroke-width="0" id="svg_17"/><path d="M164.4096875,347.44453125 c-1.275859375,0 -2.47546875,-0.496875 -3.3775,-1.39890625 c-1.958984375,-1.9590625 -3.3246874999999996,-4.177421874999999 -3.84578125,-6.246874999999999 c-0.42476562500000004,-1.68703125 -0.23226562499999998,-3.042734375 0.541875,-3.8171093750000002 c0.256328125,-0.256328125 0.671640625,-0.25625000000000003 0.9278906250000001,-0.00007812500000000002 c0.256328125,0.25625000000000003 0.256328125,0.67171875 0.00007812500000000002,0.9278906250000001 c-0.41593749999999996,0.416015625 -0.49148437500000003,1.4002343750000001 -0.197265625,2.56875 c0.46406250000000004,1.8428125 1.70734375,3.845546875 3.50109375,5.639296875 c0.654296875,0.6542187500000001 1.5242187500000002,1.01453125 2.449609375,1.01453125 c0.36250000000000004,0 0.6561718750000001,0.293671875 0.6561718750000001,0.6561718750000001 C165.0659375,347.15078125 164.772109375,347.44453125 164.4096875,347.44453125 zM167.924453125,345.48140625 c-0.1175,0 -0.23640624999999998,-0.031484375 -0.343828125,-0.09773437499999998 c-0.3084375,-0.190234375 -0.404296875,-0.594453125 -0.21406250000000002,-0.9028906250000001 c0.845625,-1.37140625 0.6392187500000001,-3.126171875 -0.502109375,-4.267578125 c-0.25625000000000003,-0.25625000000000003 -0.25625000000000003,-0.67171875 0.00007812500000000002,-0.9278906250000001 c0.25625000000000003,-0.25625000000000003 0.67171875,-0.256171875 0.9278906250000001,0.00007812500000000002 c1.5731249999999999,1.573203125 1.85734375,3.9930468749999997 0.6910937500000001,5.884296875 C168.35953125,345.370625 168.144453125,345.48140625 167.924453125,345.48140625 z" fill="#ffffff" stroke-width="0" id="svg_18"/></g><g id="L1_533"><g stroke-width="0" id="svg_19"><path d="M258.2479296875,341.1392578125 l0.57453125,0.9953125 l7.355703125000001,0.00031250000000000006 l0.5739453125,-0.9939453125 C264.026640625,339.5671484375 260.7920703125,339.6737109375 258.2479296875,341.1392578125 z" fill="#fe841a" stroke-width="0" id="svg_20"/><path d="M256.953828125,341.88796875 C254.228203125,343.461484375 252.703203125,346.3159765625 252.7003125,349.25203125 l1.15078125,0.00003906250000000001 l3.6771874999999996,-6.3690234375 L256.953828125,341.88796875 z" fill="#fe841a" stroke-width="0" id="svg_21"/><path d="M253.8510546875,350.7471875 l-1.1493359375,-0.00003906250000000001 C252.7015625,353.894375 254.411171875,356.6423046875 256.952421875,358.1128125 l0.5752343750000001,-0.9962500000000001 L253.8510546875,350.7471875 z" fill="#fe841a" stroke-width="0" id="svg_22"/><path d="M266.1775390625,357.86546875 l-7.355703125000001,-0.00031250000000000006 l-0.5739453125,0.9939453125 c2.7255078125,1.5737109375 5.960078125,1.4671484375 8.504179687499999,0.0016406250000000004 L266.1775390625,357.86546875 z" fill="#fe841a" stroke-width="0" id="svg_23"/><path d="M271.1489453125,350.747890625 l-3.6771874999999996,6.3690234375 l0.5744140625,0.995078125 c2.725625,-1.5734375 4.250625,-4.4280078125 4.2534765624999995,-7.3640625 L271.1489453125,350.747890625 z" fill="#fe841a" stroke-width="0" id="svg_24"/><path d="M268.0476171875,341.8871875 l-0.5753125,0.9962500000000001 l3.676640625,6.369335937500001 l1.1493359375,0.00003906250000000001 C272.2984375,346.1056640625 270.5888671875,343.3576953125 268.0476171875,341.8871875 z" fill="#fe841a" stroke-width="0" id="svg_25"/></g><g stroke-width="0" id="svg_26"><path d="M266.178203125,342.1348046875 C265.0612890625,341.6116015625 263.8149609375,341.318671875 262.5,341.318671875 c-1.3146875,0 -2.56078125,0.2927734375 -3.6775390624999997,0.8158203125000001 L262.5,348.5048828125 L266.178203125,342.1348046875 z" fill="#ffe368" stroke-width="0" id="svg_27"/><path d="M257.52828125,342.883046875 c-2.05078125,1.4353125 -3.452265625,3.7341015625000002 -3.6771484375,6.3690234375 l7.3541015624999995,0.0003515625000000001 L257.52828125,342.883046875 z" fill="#ffe368" stroke-width="0" id="svg_28"/><path d="M253.8510546875,350.7471875 c0.22464843750000002,2.6349609375 1.6259765625,4.933906250000001 3.6766015624999997,6.369335937500001 l3.6775390624999997,-6.368984375 L253.8510546875,350.7471875 z" fill="#ffe368" stroke-width="0" id="svg_29"/><path d="M258.821796875,357.8651953125 c1.1169140625,0.523203125 2.3632421875,0.8161328125 3.6782031250000005,0.8161328125 c1.3146875,0 2.56078125,-0.2927734375 3.6775390624999997,-0.8158203125000001 L262.5,351.4951171875 L258.821796875,357.8651953125 z" fill="#ffe368" stroke-width="0" id="svg_30"/><path d="M271.1489453125,350.747890625 l-7.3541015624999995,-0.0003515625000000001 l3.6769140625000003,6.369375000000001 C269.5225,355.6816015625 270.9240234375,353.3828125 271.1489453125,350.747890625 z" fill="#ffe368" stroke-width="0" id="svg_31"/><path d="M271.148984375,349.2527734375 c-0.22464843750000002,-2.6349609375 -1.6259765625,-4.933906250000001 -3.676640625,-6.369335937500001 l-3.6775390624999997,6.368984375 L271.148984375,349.2527734375 z" fill="#ffe368" stroke-width="0" id="svg_32"/></g><g stroke-width="0" id="svg_33"><circle cx="256" cy="140" r="8" fill="#ad4a38" transform="matrix(0.0390625,0,0,0.0390625,252.5,340) " stroke-width="0" id="svg_34"/><circle cx="73" cy="206" r="8" fill="#ad4a38" transform="matrix(0.0390625,0,0,0.0390625,252.5,340) " stroke-width="0" id="svg_35"/><circle cx="147" cy="205" r="8" fill="#ad4a38" transform="matrix(0.0390625,0,0,0.0390625,252.5,340) " stroke-width="0" id="svg_36"/><circle cx="160" cy="324" r="8" fill="#ad4a38" transform="matrix(0.0390625,0,0,0.0390625,252.5,340) " stroke-width="0" id="svg_37"/><circle cx="250" cy="363" r="8" fill="#ad4a38" transform="matrix(0.0390625,0,0,0.0390625,252.5,340) " stroke-width="0" id="svg_38"/><circle cx="350" cy="311" r="8" fill="#ad4a38" transform="matrix(0.0390625,0,0,0.0390625,252.5,340) " stroke-width="0" id="svg_39"/><circle cx="390" cy="388" r="8" fill="#ad4a38" transform="matrix(0.0390625,0,0,0.0390625,252.5,340) " stroke-width="0" id="svg_40"/><circle cx="390" cy="122" r="8" fill="#ad4a38" transform="matrix(0.0390625,0,0,0.0390625,252.5,340) " stroke-width="0" id="svg_41"/></g><g stroke-width="0" id="svg_42"><circle cx="256" cy="88" r="20" fill="#f63e31" transform="matrix(0.0390625,0,0,0.0390625,252.5,340) " stroke-width="0" id="svg_43"/><circle cx="110" cy="172" r="20" fill="#f63e31" transform="matrix(0.0390625,0,0,0.0390625,252.5,340) " stroke-width="0" id="svg_44"/><circle cx="110" cy="339" r="20" fill="#f63e31" transform="matrix(0.0390625,0,0,0.0390625,252.5,340) " stroke-width="0" id="svg_45"/><circle cx="256" cy="423" r="20" fill="#f63e31" transform="matrix(0.0390625,0,0,0.0390625,252.5,340) " stroke-width="0" id="svg_46"/><circle cx="401" cy="339" r="20" fill="#f63e31" transform="matrix(0.0390625,0,0,0.0390625,252.5,340) " stroke-width="0" id="svg_47"/><circle cx="401" cy="172" r="20" fill="#f63e31" transform="matrix(0.0390625,0,0,0.0390625,252.5,340) " stroke-width="0" id="svg_48"/></g></g><g id="L1_534"><path d="M99.8690625,81.56148437499999 c-0.731640625,-0.803671875 -1.9532031250000002,-0.94015625 -3.03609375,-0.43328125 c-0.377734375,-2.984453125 -2.204765625,-5.515859375 -4.7525,-6.871171875 H83.56375 c-2.5478125,1.3553125 -4.374765625,3.886796875 -4.7525,6.871171875 c-1.08296875,-0.506796875 -2.304609375,-0.37031250000000004 -3.03609375,0.43328125 c-0.9373437499999999,1.0296875 -0.7082031249999999,2.7646875 0.51171875,3.87515625 c0.7625,0.6940625 1.79171875,0.953046875 2.6401562499999995,0.8184375 c0.853515625,4.1303125000000005 4.511640625,7.235390625 8.89515625,7.235390625 s8.0415625,-3.1051562500000003 8.895,-7.235703125000001 c0.8485156250000001,0.13484374999999998 1.8778125,-0.124140625 2.6402343750000004,-0.818203125 C100.577265625,84.32609375 100.80640625000001,82.591171875 99.8690625,81.56148437499999 z" fill="#ffd3c7" stroke-width="0" id="svg_49"/><g stroke-width="0" id="svg_50"><path d="M83.889921875,82.462734375 c-0.317734375,0 -0.583046875,-0.22484375 -0.64546875,-0.5240625 h-0.73515625 c-0.36421875,0 -0.6593749999999999,-0.29515625 -0.6593749999999999,-0.6593749999999999 s0.29515625,-0.6593749999999999 0.6593749999999999,-0.6593749999999999 h1.3805468749999998 c0.36421875,0 0.6593749999999999,0.29515625 0.6593749999999999,0.6593749999999999 v0.5240625 C84.54921875,82.167578125 84.253984375,82.462734375 83.889921875,82.462734375 z" fill="#991d06" stroke-width="0" id="svg_51"/><path d="M91.75414062499999,82.462734375 c-0.36421875,0 -0.6593749999999999,-0.29515625 -0.6593749999999999,-0.6593749999999999 v-0.5240625 c0,-0.36421875 0.29515625,-0.6593749999999999 0.6593749999999999,-0.6593749999999999 h1.380625 c0.36421875,0 0.6593749999999999,0.29515625 0.6593749999999999,0.6593749999999999 s-0.29515625,0.6593749999999999 -0.6593749999999999,0.6593749999999999 h-0.735234375 C92.337109375,82.23796875 92.071875,82.462734375 91.75414062499999,82.462734375 z" fill="#991d06" stroke-width="0" id="svg_52"/></g><path d="M87.82203125000001,89.69171875 c-2.9914843749999998,0 -5.556328124999999,-2.2328124999999996 -5.965859375,-5.1937500000000005 c-0.049843750000000006,-0.360703125 0.202109375,-0.6935156250000001 0.5628124999999999,-0.7434375 c0.359375,-0.049218750000000006 0.6935156250000001,0.202109375 0.7434375,0.5628124999999999 c0.31984375000000004,2.3121875 2.3229687500000002,4.055703125 4.6596093750000005,4.055703125 s4.339765625,-1.74359375 4.6596093750000005,-4.055703125 c0.049843750000000006,-0.36078125000000005 0.38359375,-0.612109375 0.7434375,-0.5628124999999999 c0.36078125000000005,0.04992187500000001 0.612734375,0.382734375 0.5628124999999999,0.7434375 C93.378359375,87.458828125 90.81351562500001,89.69171875 87.82203125000001,89.69171875 z" fill="#ff709d" stroke-width="0" id="svg_53"/><circle cx="260" cy="206" r="22" fill="#f63e31" transform="matrix(0.078125,0,0,0.078125,67.5,67.5) " stroke-width="0" id="svg_54"/><g stroke-width="0" id="svg_55"><path d="M87.82203125000001,67.5 c-2.3517968750000002,0 -4.25828125,1.9065625 -4.25828125,4.25828125 v2.498671875 h8.516640625 V71.75828125 C92.08031249999999,69.4065625 90.173828125,67.5 87.82203125000001,67.5 z" fill="#ff3776" stroke-width="0" id="svg_56"/><path d="M98.438828125,100.3559375 H76.561171875 c-2.102890625,1.9118750000000002 -3.7027343750000004,4.3671875 -4.57765625,7.1440625 h31.03296875 C102.14156249999999,104.72312500000001 100.541640625,102.2678125 98.438828125,100.3559375 z" fill="#ff3776" stroke-width="0" id="svg_57"/></g><path d="M96.164375,98.62546875 H78.835625 c-0.8090625,0.510234375 -1.57,1.08984375 -2.27453125,1.73046875 c0.1328125,0.36531250000000004 0.298203125,0.719765625 0.4953125,1.061171875 c1.087265625,1.8834375 2.9812499999999997,3.07640625 5.057109375,3.299921875 c1.231640625,1.686015625 3.2117968749999997,2.7296875 5.386484375,2.7296875 c2.1746875,0 4.15484375,-1.043671875 5.386484375,-2.7296875 c2.0758593750000003,-0.22359375 3.96984375,-1.4165625000000002 5.057109375,-3.299921875 c0.197109375,-0.34148437500000006 0.362421875,-0.695859375 0.4953125,-1.061171875 C97.734375,99.715390625 96.9734375,99.13570312499999 96.164375,98.62546875 z" fill="#ff709d" stroke-width="0" id="svg_58"/><path d="M83.664765625,102.03046875 c0.528515625,1.61328125 2.045390625,2.77890625 3.835234375,2.77890625 c1.789921875,0 3.306796875,-1.165625 3.835234375,-2.77890625 c1.661328125,0.34890625000000003 3.4292968750000004,-0.38187499999999996 4.32421875,-1.931953125 c0.270390625,-0.46828125 0.43624999999999997,-0.9683593749999999 0.504765625,-1.47296875 c-2.5085156250000002,-1.5818750000000001 -5.479531250000001,-2.497265625 -8.664375,-2.497265625 s-6.1557812499999995,0.9153125 -8.664375,2.497265625 c0.06859375000000001,0.504609375 0.23445312499999998,1.0046875 0.504765625,1.47296875 C80.23546875,101.64859375 82.003359375,102.37937500000001 83.664765625,102.03046875 z" fill="#ffe368" stroke-width="0" id="svg_59"/><path d="M94.421875,74.91625 H81.222109375 c-0.36421875,0 -0.6593749999999999,-0.29515625 -0.6593749999999999,-0.6593749999999999 s0.29515625,-0.6593749999999999 0.6593749999999999,-0.6593749999999999 H94.421875 c0.36421875,0 0.6593749999999999,0.29515625 0.6593749999999999,0.6593749999999999 S94.78609374999999,74.91625 94.421875,74.91625 z" fill="#e60048" stroke-width="0" id="svg_60"/></g><g id="L1_535"><path d="M280.69296875,94.2928125 l-3.246015625,-0.66015625 l-0.248203125,1.220234375 l3.246015625,0.66015625 c0.041953125,0.008515625 0.08367187499999999,0.012500000000000002 0.12476562499999999,0.012500000000000002 c0.289921875,0 0.549453125,-0.2034375 0.60953125,-0.49859374999999995 C281.2475,94.690078125 281.029921875,94.361328125 280.69296875,94.2928125 z" fill="#ff3776" stroke-width="0" id="svg_61"/><path d="M281.505546875,91.42890625 l-3.2940625,-0.40195312499999997 l-0.15078125,1.236015625 l3.2940625,0.40195312499999997 c0.025625000000000005,0.0031250000000000006 0.05093750000000001,0.004765625000000001 0.076171875,0.004765625000000001 c0.31015624999999997,0 0.57875,-0.231640625 0.6172656249999999,-0.54734375 C282.08984375,91.78101562500001 281.846875,91.470546875 281.505546875,91.42890625 z" fill="#e60048" stroke-width="0" id="svg_62"/><path d="M281.902578125,88.41171875 l-3.3196093749999998,-0.135 l-0.05054687500000001,1.24421875 l3.3196093749999998,0.135 c0.008671875,0.00031250000000000006 0.0171875,0.00046875000000000015 0.025703125000000007,0.00046875000000000015 c0.332265625,0 0.608125,-0.26234375 0.62171875,-0.59734375 C282.5134375,88.715625 282.24625000000003,88.425703125 281.902578125,88.41171875 z" fill="#ff3776" stroke-width="0" id="svg_63"/><path d="M278.53265625,85.479140625 l0.024921875000000003,1.2447656249999999 c0.008515625,0 0.017109375000000003,-0.00015625000000000003 0.025703125000000007,-0.00046875000000000015 l3.319453125,-0.135 c0.34359375,-0.014062500000000002 0.6107812499999999,-0.303828125 0.596796875,-0.647421875 c-0.013984375000000002,-0.34359375 -0.303203125,-0.610703125 -0.647421875,-0.596796875 L278.53265625,85.479140625 z" fill="#e60048" stroke-width="0" id="svg_64"/><path d="M278.21140625,83.973203125 l3.294375,-0.40195312499999997 c0.34125000000000005,-0.0415625 0.584296875,-0.35210937499999995 0.542578125,-0.6934374999999999 c-0.041640625,-0.341328125 -0.35234374999999996,-0.585078125 -0.6934374999999999,-0.542578125 l-3.294375,0.40195312499999997 L278.21140625,83.973203125 z" fill="#ff3776" stroke-width="0" id="svg_65"/><path d="M280.69320312499997,80.707265625 c0.33695312499999996,-0.06851562500000001 0.55453125,-0.397265625 0.486015625,-0.7342968750000001 c-0.06851562500000001,-0.33695312499999996 -0.3965625,-0.5543750000000001 -0.7342968750000001,-0.486015625 l-3.24578125,0.66015625 l0.248203125,1.220234375 L280.69320312499997,80.707265625 z" fill="#e60048" stroke-width="0" id="svg_66"/><path d="M277.845703125,80.02859375 h-0.06359375 l-2.3560937500000003,0.479140625 l-3.42109375,13.28875 l5.777187499999999,1.175078125 l0.06375,-0.0003906250000000001 C279.973359375,90.23070312499999 279.97328125,84.76890625 277.845703125,80.02859375 z" fill="#ffe368" stroke-width="0" id="svg_67"/><path d="M242.5,85.839765625 L242.5,89.16039062499999 L250.801640625,89.988828125 L251.631796875,87.500078125 L250.801640625,85.01125 z" fill="#e60048" stroke-width="0" id="svg_68"/><g stroke-width="0" id="svg_69"><path d="M250.818828125,85.009609375 L250.801640625,85.01125 L250.801640625,89.988828125 L250.818828125,89.990546875 L253.2921875,89.990546875 L254.12234375,87.500078125 L253.2921875,85.009609375 z" fill="#ff3776" stroke-width="0" id="svg_70"/><path d="M275.426015625,80.507734375 l-5.94515625,1.20921875 l-2.799140625,10.996875 l5.323203125,1.082734375 C274.820703125,89.991953125 276.056328125,85.206796875 275.426015625,80.507734375 z" fill="#ff3776" stroke-width="0" id="svg_71"/></g><path d="M269.480859375,81.716953125 l-6.025625,1.225546875 l-2.193828125,8.668828125 l5.420234375000001,1.1025 C268.75234375,89.446171875 269.73765625,85.583359375 269.480859375,81.716953125 z" fill="#ffe368" stroke-width="0" id="svg_72"/><path d="M257.301953125,84.193984375 l-1.5905468750000002,6.28859375 l5.549921875,1.1287500000000001 c1.4342968750000002,-2.6589843749999997 2.19046875,-5.64359375 2.193828125,-8.668906250000001 L257.301953125,84.193984375 z" fill="#ff3776" stroke-width="0" id="svg_73"/><path d="M253.2921875,85.009609375 v4.9810156249999995 l2.419375,0.49203125000000003 c0.898984375,-1.9827343750000002 1.4385937500000001,-4.114609375000001 1.5905468750000002,-6.28859375 L253.2921875,85.009609375 z" fill="#ffe368" stroke-width="0" id="svg_74"/></g><g id="L1_536"><path d="M326.80317996895315,198.19695613890886 c-0.4432413179278374,-0.4432413179278374 -0.4432413179278374,-1.1619703766405582 0,-1.6053484130501747 l14.545752713441848,-14.545752713441848 c0.4432413179278374,-0.4432413179278374 1.1621070951223373,-0.4432413179278374 1.6053484130501747,0 c0.4432413179278374,0.4432413179278374 0.4432413179278374,1.1619703766405582 0,1.6053484130501747 L328.4085283820033,198.19695613890886 C327.9650136271119,198.6401974568367 327.24642128688095,198.6401974568367 326.80317996895315,198.19695613890886 z" fill="#e4b780" stroke-width="0" id="svg_75"/><rect x="171" y="245" width="131" height="59" transform="matrix(-0.09667363846600055,0.09667363846600055,-0.09667363846600055,-0.09667363846600055,396.9560716365069,181.13202868020534) " fill="#ff709d" stroke-width="0" id="svg_76"/><path d="M346.4269305326343,165.88778124335408 L359.1123548645079,178.57293213826418 L363.78306835752727,173.90221864524483 L359.5807523830831,165.41911028781533 L351.0976440256536,161.21693103185297 z" fill="#ffd3c7" stroke-width="0" id="svg_77"/><path d="M351.0976440256536,161.21693103185297 L363.78306835752727,173.90221864524483 L368.4537818505466,169.2315051522255 L364.25160259458426,160.74839679479598 L355.76835751867293,156.54621753883362 z" fill="#f63e31" stroke-width="0" id="svg_78"/><path d="M360.4392077301741,151.87550404581427 L355.76835751867293,156.54621753883362 L368.4537818505466,169.2315051522255 L373.12449534356597,164.56079165920616 L368.9223160876036,156.07768330177666 z" fill="#ffd3c7" stroke-width="0" id="svg_79"/><path d="M377.7952088365853,159.88994144770504 L373.5930295806229,151.4069698087573 L365.1099212231934,147.20479055279495 L360.4392077301741,151.87550404581427 L373.12449534356597,164.56079165920616 z" fill="#f63e31" stroke-width="0" id="svg_80"/><path d="M382.4659223296046,155.2192279546857 L378.46772704845665,146.53240905940532 L369.7806347162128,142.5339403412938 L365.1099212231934,147.20479055279495 L377.7952088365853,159.88994144770504 z" fill="#ffd3c7" stroke-width="0" id="svg_81"/><path d="M318.69221931892633,206.3076433519721 c-0.4432413179278374,-0.4432413179278374 -0.4432413179278374,-1.1619703766405582 0,-1.6053484130501747 l3.857375244915485,-3.857375244915485 c0.4432413179278374,-0.4432413179278374 1.1621070951223373,-0.4432413179278374 1.6053484130501747,0 c0.4432413179278374,0.4432413179278374 0.4432413179278374,1.1619703766405582 0,1.6053484130501747 l-3.857375244915485,3.857375244915485 C319.85432641404867,206.75102138838173 319.1354606368542,206.75102138838173 318.69221931892633,206.3076433519721 z" fill="#ffd102" stroke-width="0" id="svg_82"/><path d="M326.80317996895315,209.66736332321167 c-0.20535115963220596,-0.20535115963220596 -0.3324993476867676,-0.4891787278056145 -0.3324993476867676,-0.8026742065250874 v-5.4553408599495885 c0,-0.6269909574389458 0.5081825967729092,-1.135173554211855 1.1353102726936342,-1.1353102726936342 c0.6267175204753875,0.00013671848177909855 1.1350368357300757,0.5084560337364674 1.135173554211855,1.135173554211855 v5.4553408599495885 c0,0.6269909574389458 -0.5081825967729092,1.135173554211855 -1.1353102726936342,1.1353102726936342 C327.292221978277,209.99986267089844 327.00853112858533,209.8727144828439 326.80317996895315,209.66736332321167 z" fill="#ffaa0e" stroke-width="0" id="svg_83"/><path d="M334.91400390049813,206.30778007045387 l-3.8575119633972643,-3.8575119633972643 c-0.4432413179278374,-0.4432413179278374 -0.4432413179278374,-1.1619703766405582 0,-1.6053484130501747 c0.4432413179278374,-0.4432413179278374 1.1621070951223373,-0.4432413179278374 1.6053484130501747,0 l3.8575119633972643,3.8575119633972643 c0.4432413179278374,0.4432413179278374 0.4432413179278374,1.1619703766405582 0,1.6053484130501747 C336.0759742771387,206.7511581068635 335.35738193690776,206.7511581068635 334.91400390049813,206.30778007045387 z" fill="#ffd102" stroke-width="0" id="svg_84"/><g stroke-width="0" id="svg_85"><path d="M333.22443690267204,198.1968194204271 c-0.20535115963220596,-0.20535115963220596 -0.3324993476867676,-0.4891787278056145 -0.3324993476867676,-0.8026742065250874 c0,-0.6269909574389458 0.5081825967729092,-1.135173554211855 1.1353102726936342,-1.1353102726936342 h5.049286969065666 c0.6268542389571666,0 1.1350368357300757,0.5085927522182465 1.135173554211855,1.135173554211855 c0,0.6269909574389458 -0.5081825967729092,1.135173554211855 -1.1353102726936342,1.1353102726936342 H334.0271111091971 C333.71361563047765,198.52931876811385 333.42992478078605,198.4021705800593 333.22443690267204,198.1968194204271 z" fill="#ffaa0e" stroke-width="0" id="svg_86"/><path d="M326.80317996895315,191.7758359236717 c-0.20535115963220596,-0.20535115963220596 -0.3324993476867676,-0.4891787278056145 -0.3324993476867676,-0.8026742065250874 v-5.049697124511003 c0,-0.6269909574389458 0.5081825967729092,-1.135173554211855 1.1353102726936342,-1.1353102726936342 c0.6267175204753875,0.00013671848177909855 1.1350368357300757,0.5084560337364674 1.135173554211855,1.135173554211855 v5.049697124511003 c0,0.6269909574389458 -0.5081825967729092,1.135173554211855 -1.1353102726936342,1.1353102726936342 C327.2924954152405,192.1083352713585 327.0086678470671,191.9814605202675 326.80317996895315,191.7758359236717 z" fill="#ffaa0e" stroke-width="0" id="svg_87"/></g><path d="M322.5495945638418,193.94337073379756 l-3.8575119633972643,-3.8575119633972643 c-0.4432413179278374,-0.4432413179278374 -0.4432413179278374,-1.1619703766405582 0,-1.6053484130501747 c0.4432413179278374,-0.4432413179278374 1.1621070951223373,-0.4432413179278374 1.6053484130501747,0 l3.8575119633972643,3.8575119633972643 c0.4432413179278374,0.4432413179278374 0.4432413179278374,1.1619703766405582 0,1.6053484130501747 S322.9928358817697,194.3866120517254 322.5495945638418,193.94337073379756 z" fill="#ffd102" stroke-width="0" id="svg_88"/><path d="M315.3324993476868,198.1968194204271 C315.12714818805455,197.9913315423131 315,197.70764069262145 315,197.394145213902 c0,-0.6269909574389458 0.5081825967729092,-1.135173554211855 1.1353102726936342,-1.1353102726936342 h5.4553408599495885 c0.6267175204753875,0.00013671848177909855 1.1350368357300757,0.5084560337364674 1.135173554211855,1.135173554211855 c0,0.6269909574389458 -0.5081825967729092,1.135173554211855 -1.1353102726936342,1.1353102726936342 H316.13517355421186 C315.8216780754924,198.52931876811385 315.537850507319,198.40230729854107 315.3324993476868,198.1968194204271 z" fill="#ffaa0e" stroke-width="0" id="svg_89"/><path d="M384.95734322306515,142.00716403099895 c0.251151851028204,-1.3315012940466404 -0.6330065706372261,-2.2155229972302912 -1.9643711462020874,-1.9643711462020874 l-13.2123373606503,2.491420893460512 l12.685287613391877,12.685287613391877 L384.95734322306515,142.00716403099895 z" fill="#e60048" stroke-width="0" id="svg_90"/></g><g id="L1_537"><path d="M188.78100024908838,138.52421930611817 C186.05163716655363,136.94842079570049 185.2575861124257,138.3239509147641 182.52822302989094,136.74815240434643 c0,0 -4.787973580186625,8.128039439356973 -4.083960805584493,15.785548487435124 l1.8399943703867014,1.8397302500435757 l8.72521553516467,-12.988117873216972 C189.90287625530294,139.28177902595647 189.44743368887293,138.90898483197475 188.78100024908838,138.52421930611817 z" fill="#ff709d" stroke-width="0" id="svg_91"/><path d="M199.69845257922748,144.82741334778888 c-0.525731542992138,-0.525731542992138 -0.9874139027762411,-0.8575987541298528 -1.416873580698982,-1.0913452577962894 l-12.987589632530721,8.725743775850923 l1.8399943703867014,1.8397302500435757 C197.518443989442,156.3198779495185 204.36296024458125,149.35444381293263 204.36296024458125,149.35444381293263 C201.63359716204644,147.77864530251495 202.42781566176225,146.40321185820656 199.69845257922748,144.82741334778888 z" fill="#e60048" stroke-width="0" id="svg_92"/><path d="M193.44554329985846,143.05138183143347 c-1.6269813136556492,-1.6269813136556492 -1.4053843457730049,-2.644108755033556 -2.1290740859380177,-3.9731623216431706 l-8.72521553516467,12.988117873216972 l1.8399943703867014,1.8397302500435757 l12.987589632530721,-8.725743775850923 C196.46618826998093,143.74814731142362 195.50843755719234,144.242282755823 193.44554329985846,143.05138183143347 z" fill="#ff3776" stroke-width="0" id="svg_93"/><path d="M161.21899975091165,211.47578069388183 c2.1525807964762245,2.1525807964762245 3.2373230456943656,1.06770648708652 5.3899038421705905,3.2202872835627443 c0,0 4.80250019905855,-8.153791172811749 4.08026312078073,-15.823977997359945 l-1.8220341870541392,-1.822298307397265 l-8.739345973521909,13.009247500667048 C160.0971237446971,210.71822097404353 160.5525663111271,211.09101516802525 161.21899975091165,211.47578069388183 z" fill="#e60048" stroke-width="0" id="svg_94"/><path d="M152.0108460819616,205.88428177828212 c1.328921506438052,0.7236897401650129 2.3463130681590845,0.5020927722823684 3.9731623216431706,2.1290740859380177 c1.6269813136556492,1.6268492534840864 1.4053843457730049,2.644240815205119 2.1290740859380177,3.9731623216431706 l8.739345973521909,-13.009247500667048 l-1.8327310609507388,-1.8329951812938647 L152.0108460819616,205.88428177828212 z" fill="#ff3776" stroke-width="0" id="svg_95"/><g stroke-width="0" id="svg_96"><path d="M160.36863896586,192.32502324293193 C152.5044269626798,193.65771650582192 145.6370397554188,200.64555618706737 145.6370397554188,200.64555618706737 c2.1525807964762245,2.1525807964762245 1.06770648708652,3.2373230456943656 3.2202872835627443,5.3899038421705905 c0.525731542992138,0.525731542992138 0.9874139027762411,0.8575987541298528 1.416873580698982,1.0913452577962894 l13.008851320152358,-8.740006274379724 L160.36863896586,192.32502324293193 z" fill="#ff709d" stroke-width="0" id="svg_97"/><path d="M196.92872032690164,169.11416763912314 c0,-12.10555974666172 -9.813523409015014,-21.919083155676734 -21.919083155676734,-21.919083155676734 c-3.067229544721275,0 -5.986815817635163,0.630983499727816 -8.637395521075304,1.7686818777427038 c-6.9038416489683465,13.49232360824435 -0.6794495826914216,32.59245034173817 17.24494544337738,40.313876512852794 C195.9501367007228,187.40199248955233 199.3536475220738,178.16411913616113 196.92872032690164,169.11416763912314 z" fill="#ff709d" stroke-width="0" id="svg_98"/></g><path d="M153.09055401554818,180.86056889991156 c0,12.10555974666172 9.813523409015014,21.919083155676734 21.919083155676734,21.919083155676734 c3.055608249623735,0 5.964761768984149,-0.6259652132084236 8.60741786213051,-1.7554758605864078 c-14.359958935412987,-14.394822820705606 -2.874685814582482,-25.91799721077468 -17.244813383205816,-40.31400857302435 C154.0605178468224,162.59656804969012 150.6687407370124,171.8222386979711 153.09055401554818,180.86056889991156 z" fill="#ff3776" stroke-width="0" id="svg_99"/></g><g id="L1_538"><path d="M83.10439453125,243.43759765625 c0,-2.3400390625 1.80859375,-4.8068359375 4.39560546875,-5.93759765625 c2.58701171875,1.1306640625 4.39560546875,3.5975585937499996 4.39560546875,5.93759765625 c0,2.4275390625 -1.96806640625,4.39560546875 -4.39560546875,4.39560546875 S83.10439453125,245.86513671875 83.10439453125,243.43759765625 L83.10439453125,243.43759765625 z" fill="#ffd102" stroke-width="0" id="svg_100"/><path d="M87.5,245.88564453125 c-0.45517578125,0 -0.82421875,0.36904296875 -0.82421875,0.82421875 v4.39560546875 h1.64833984375 V246.709765625 C88.32421875,246.25458984375 87.95517578125,245.88564453125 87.5,245.88564453125 z" fill="#459492" stroke-width="0" id="svg_101"/><path d="M88.59892578125,250.0064453125 h-2.19775390625 c-0.60439453125,0 -1.09892578125,0.49453125 -1.09892578125,1.09892578125 v9.4166015625 h4.39560546875 v-9.4166015625 C89.69775390625,250.5009765625 89.2033203125,250.0064453125 88.59892578125,250.0064453125 z" fill="#9ad6d4" stroke-width="0" id="svg_102"/><path d="M66.56123046875,267.1154296875 L66.56123046875,283.65380859375 L107.7333984375,283.65380859375 L107.7333984375,267.1154296875 L87.5,264.917578125 z" fill="#ad4a38" stroke-width="0" id="svg_103"/><path d="M103.33779296875,259.423046875 H70.9568359375 c-2.417578125,0 -4.39560546875,1.97802734375 -4.39560546875,4.39560546875 v3.2966796875 c2.77080078125,0 3.3037109375,1.88369140625 5.2134765625,2.60849609375 c-0.0002929687500000001,0 -0.0002929687500000001,5.6356445312500005 -0.0002929687500000001,5.6356445312500005 c0,0.9103515624999999 0.73798828125,1.64833984375 1.64833984375,1.64833984375 s1.64833984375,-0.73798828125 1.64833984375,-1.64833984375 V269.7236328125 c1.9095703124999999,-0.72490234375 2.4427734375,-2.6083984375 5.21328125,-2.6083984375 c3.43095703125,0 3.43095703125,2.88798828125 6.86201171875,2.88798828125 c3.430859375,0 3.430859375,-2.88798828125 6.86171875,-2.88798828125 c3.43134765625,0 3.43134765625,2.88798828125 6.862792968750001,2.88798828125 s3.43134765625,-2.88798828125 6.862597656249999,-2.88798828125 v-3.2966796875 C107.7333984375,261.40107421875 105.75537109375,259.423046875 103.33779296875,259.423046875 z" fill="#991d06" stroke-width="0" id="svg_104"/><path d="M63.59892578125,283.65380859375 l0.64599609375,2.26123046875 C64.49404296875,286.78681640625 65.43955078125,287.5 66.34619140625,287.5 h42.30771484375 c0.9066406250000001,0 1.85205078125,-0.71318359375 2.101171875,-1.5849609375 l0.6460937499999999,-2.26123046875 H63.59892578125 z" fill="#9ad6d4" stroke-width="0" id="svg_105"/><path d="M111.67578125,284.47802734375 H63.32421875 c-0.45517578125,0 -0.82421875,-0.36904296875 -0.82421875,-0.82421875 s0.36904296875,-0.82421875 0.82421875,-0.82421875 H111.67578125 c0.45517578125,0 0.82421875,0.36904296875 0.82421875,0.82421875 S112.13095703125,284.47802734375 111.67578125,284.47802734375 z" fill="#57bab7" stroke-width="0" id="svg_106"/></g><g id="L1_539"><path d="M232.43639595924319,229.50012878452242 L286.5623961450756,231.47820676088332 L286.5623961450756,217.5 z" fill="#ff709d" stroke-width="0" id="svg_107"/><rect x="84" y="68" width="342" height="443" fill="#ffd3c7" transform="matrix(0.17578227818012238,0,0,0.17578227818012238,217.5,217.5) " stroke-width="0" id="svg_108"/><path d="M261.0157818748802,285.9271189917326 v13.661271313324571 c0,0.8194969808757305 0.6642812292426824,1.4836024278402327 1.4836024278402327,1.4836024278402327 c0.8193211985975505,0 1.4836024278402327,-0.6641054469645024 1.4836024278402327,-1.4836024278402327 v-13.661271313324571 H261.0157818748802 z" fill="#ffffff" stroke-width="0" id="svg_109"/><path d="M280.796210073933,255.70909067890048 c0,-10.105020043462515 -8.191805727750062,-18.29682577121258 -18.29682577121258,-18.29682577121258 S244.20255853150786,245.60407063543795 244.20255853150786,255.70909067890048 c0,9.592263138011099 9.349507811844349,19.704138690322637 17.073381115078927,25.219131885945796 l-3.8585967883318664,6.482498854726553 h10.164082888931036 l-3.8585967883318664,-6.482498854726553 C271.44670226208865,275.41322936922313 280.796210073933,265.30135381691156 280.796210073933,255.70909067890048 z" fill="#ff3776" stroke-width="0" id="svg_110"/><path d="M250.1366166783124,257.1926931067407 c-0.8193211985975505,0 -1.4836024278402327,-0.6641054469645024 -1.4836024278402327,-1.4836024278402327 c0,-7.634751688197255 6.211442581772804,-13.846194269970061 13.846194269970061,-13.846194269970061 c0.8193211985975505,0 1.4836024278402327,0.6641054469645024 1.4836024278402327,1.4836024278402327 s-0.6642812292426824,1.4836024278402327 -1.4836024278402327,1.4836024278402327 c-5.998746025174856,0 -10.879165196567774,4.8804191713929175 -10.879165196567774,10.879165196567774 C251.62021910615266,256.52858765977624 250.95593787690996,257.1926931067407 250.1366166783124,257.1926931067407 z" fill="#ffffff" stroke-width="0" id="svg_111"/></g></defs><g class="currentLayer" style=""><title>Layer 1</title><rect x="0px" y="0px" width="100%" height="100%" opacity="1" fill="#ffffff" id="svg_112"/><g fi:class="KUsePattern" id="svg_113"><pattern id="pattern_L1_530" width="350" height="350" patternUnits="userSpaceOnUse"><use xlink:href="#L1_530" x="-350" y="-350" id="svg_114"/><use xlink:href="#L1_530" x="0" y="-350" id="svg_115"/><use xlink:href="#L1_530" x="350" y="-350" id="svg_116"/><use xlink:href="#L1_530" x="-350" y="0" id="svg_117"/><use xlink:href="#L1_530" x="0" y="0" id="svg_118"/><use xlink:href="#L1_530" x="350" y="0" id="svg_119"/><use xlink:href="#L1_530" x="-350" y="350" id="svg_120"/><use xlink:href="#L1_530" x="0" y="350" id="svg_121"/><use xlink:href="#L1_530" x="350" y="350" id="svg_122"/></pattern><rect x="0" y="0" width="100%" height="100%" fill="url(#pattern_L1_530)" id="svg_123"/></g><g fi:class="KUsePattern" id="svg_124"><pattern id="pattern_L1_531" width="350" height="350" patternUnits="userSpaceOnUse"><use xlink:href="#L1_531" x="-350" y="-350" id="svg_125"/><use xlink:href="#L1_531" x="0" y="-350" id="svg_126"/><use xlink:href="#L1_531" x="350" y="-350" id="svg_127"/><use xlink:href="#L1_531" x="-350" y="0" id="svg_128"/><use xlink:href="#L1_531" x="0" y="0" id="svg_129"/><use xlink:href="#L1_531" x="350" y="0" id="svg_130"/><use xlink:href="#L1_531" x="-350" y="350" id="svg_131"/><use xlink:href="#L1_531" x="0" y="350" id="svg_132"/><use xlink:href="#L1_531" x="350" y="350" id="svg_133"/></pattern><rect x="0" y="0" width="100%" height="100%" fill="url(#pattern_L1_531)" id="svg_134"/></g><g fi:class="KUsePattern" id="svg_135"><pattern id="pattern_L1_532" width="350" height="350" patternUnits="userSpaceOnUse"><use xlink:href="#L1_532" x="-350" y="-350" id="svg_136"/><use xlink:href="#L1_532" x="0" y="-350" id="svg_137"/><use xlink:href="#L1_532" x="350" y="-350" id="svg_138"/><use xlink:href="#L1_532" x="-350" y="0" id="svg_139"/><use xlink:href="#L1_532" x="0" y="0" id="svg_140"/><use xlink:href="#L1_532" x="350" y="0" id="svg_141"/><use xlink:href="#L1_532" x="-350" y="350" id="svg_142"/><use xlink:href="#L1_532" x="0" y="350" id="svg_143"/><use xlink:href="#L1_532" x="350" y="350" id="svg_144"/></pattern><rect x="0" y="0" width="100%" height="100%" fill="url(#pattern_L1_532)" id="svg_145"/></g><g fi:class="KUsePattern" id="svg_146"><pattern id="pattern_L1_533" width="350" height="350" patternUnits="userSpaceOnUse"><use xlink:href="#L1_533" x="-350" y="-350" id="svg_147"/><use xlink:href="#L1_533" x="0" y="-350" id="svg_148"/><use xlink:href="#L1_533" x="350" y="-350" id="svg_149"/><use xlink:href="#L1_533" x="-350" y="0" id="svg_150"/><use xlink:href="#L1_533" x="0" y="0" id="svg_151"/><use xlink:href="#L1_533" x="350" y="0" id="svg_152"/><use xlink:href="#L1_533" x="-350" y="350" id="svg_153"/><use xlink:href="#L1_533" x="0" y="350" id="svg_154"/><use xlink:href="#L1_533" x="350" y="350" id="svg_155"/></pattern><rect x="0" y="0" width="100%" height="100%" fill="url(#pattern_L1_533)" id="svg_156"/></g><g fi:class="KUsePattern" id="svg_157"><pattern id="pattern_L1_534" width="350" height="350" patternUnits="userSpaceOnUse"><use xlink:href="#L1_534" x="-350" y="-350" id="svg_158"/><use xlink:href="#L1_534" x="0" y="-350" id="svg_159"/><use xlink:href="#L1_534" x="350" y="-350" id="svg_160"/><use xlink:href="#L1_534" x="-350" y="0" id="svg_161"/><use xlink:href="#L1_534" x="0" y="0" id="svg_162"/><use xlink:href="#L1_534" x="350" y="0" id="svg_163"/><use xlink:href="#L1_534" x="-350" y="350" id="svg_164"/><use xlink:href="#L1_534" x="0" y="350" id="svg_165"/><use xlink:href="#L1_534" x="350" y="350" id="svg_166"/></pattern><rect x="0" y="0" width="100%" height="100%" fill="url(#pattern_L1_534)" id="svg_167"/></g><g fi:class="KUsePattern" id="svg_168"><pattern id="pattern_L1_535" width="350" height="350" patternUnits="userSpaceOnUse"><use xlink:href="#L1_535" x="-350" y="-350" id="svg_169"/><use xlink:href="#L1_535" x="0" y="-350" id="svg_170"/><use xlink:href="#L1_535" x="350" y="-350" id="svg_171"/><use xlink:href="#L1_535" x="-350" y="0" id="svg_172"/><use xlink:href="#L1_535" x="0" y="0" id="svg_173"/><use xlink:href="#L1_535" x="350" y="0" id="svg_174"/><use xlink:href="#L1_535" x="-350" y="350" id="svg_175"/><use xlink:href="#L1_535" x="0" y="350" id="svg_176"/><use xlink:href="#L1_535" x="350" y="350" id="svg_177"/></pattern><rect x="0" y="0" width="100%" height="100%" fill="url(#pattern_L1_535)" id="svg_178"/></g><g fi:class="KUsePattern" id="svg_179"><pattern id="pattern_L1_536" width="350" height="350" patternUnits="userSpaceOnUse"><use xlink:href="#L1_536" x="-350" y="-350" id="svg_180"/><use xlink:href="#L1_536" x="0" y="-350" id="svg_181"/><use xlink:href="#L1_536" x="350" y="-350" id="svg_182"/><use xlink:href="#L1_536" x="-350" y="0" id="svg_183"/><use xlink:href="#L1_536" x="0" y="0" id="svg_184"/><use xlink:href="#L1_536" x="350" y="0" id="svg_185"/><use xlink:href="#L1_536" x="-350" y="350" id="svg_186"/><use xlink:href="#L1_536" x="0" y="350" id="svg_187"/><use xlink:href="#L1_536" x="350" y="350" id="svg_188"/></pattern><rect x="0" y="0" width="100%" height="100%" fill="url(#pattern_L1_536)" id="svg_189"/></g><g fi:class="KUsePattern" id="svg_190"><pattern id="pattern_L1_537" width="350" height="350" patternUnits="userSpaceOnUse"><use xlink:href="#L1_537" x="-350" y="-350" id="svg_191"/><use xlink:href="#L1_537" x="0" y="-350" id="svg_192"/><use xlink:href="#L1_537" x="350" y="-350" id="svg_193"/><use xlink:href="#L1_537" x="-350" y="0" id="svg_194"/><use xlink:href="#L1_537" x="0" y="0" id="svg_195"/><use xlink:href="#L1_537" x="350" y="0" id="svg_196"/><use xlink:href="#L1_537" x="-350" y="350" id="svg_197"/><use xlink:href="#L1_537" x="0" y="350" id="svg_198"/><use xlink:href="#L1_537" x="350" y="350" id="svg_199"/></pattern><rect x="0" y="0" width="100%" height="100%" fill="url(#pattern_L1_537)" id="svg_200"/></g><g fi:class="KUsePattern" id="svg_201"><pattern id="pattern_L1_538" width="350" height="350" patternUnits="userSpaceOnUse"><use xlink:href="#L1_538" x="-350" y="-350" id="svg_202"/><use xlink:href="#L1_538" x="0" y="-350" id="svg_203"/><use xlink:href="#L1_538" x="350" y="-350" id="svg_204"/><use xlink:href="#L1_538" x="-350" y="0" id="svg_205"/><use xlink:href="#L1_538" x="0" y="0" id="svg_206"/><use xlink:href="#L1_538" x="350" y="0" id="svg_207"/><use xlink:href="#L1_538" x="-350" y="350" id="svg_208"/><use xlink:href="#L1_538" x="0" y="350" id="svg_209"/><use xlink:href="#L1_538" x="350" y="350" id="svg_210"/></pattern><rect x="0" y="0" width="100%" height="100%" fill="url(#pattern_L1_538)" id="svg_211"/></g><g fi:class="KUsePattern" id="svg_212"><pattern id="pattern_L1_539" width="350" height="350" patternUnits="userSpaceOnUse"><use xlink:href="#L1_539" x="-350" y="-350" id="svg_213"/><use xlink:href="#L1_539" x="0" y="-350" id="svg_214"/><use xlink:href="#L1_539" x="350" y="-350" id="svg_215"/><use xlink:href="#L1_539" x="-350" y="0" id="svg_216"/><use xlink:href="#L1_539" x="0" y="0" id="svg_217"/><use xlink:href="#L1_539" x="350" y="0" id="svg_218"/><use xlink:href="#L1_539" x="-350" y="350" id="svg_219"/><use xlink:href="#L1_539" x="0" y="350" id="svg_220"/><use xlink:href="#L1_539" x="350" y="350" id="svg_221"/></pattern><rect x="0" y="0" width="100%" height="100%" fill="url(#pattern_L1_539)" id="svg_222"/></g><rect fill="#ffffff" stroke-dashoffset="" fill-rule="nonzero" id="svg_223" x="0.6849797834680942" y="-0.342183571272074" width="700.20540340894" height="350.7394490524756" style="color: rgb(0, 0, 0);" class="selected" opacity="0.82" stroke="none" fill-opacity="1"/></g></svg>