<svg width="200" height="200" xmlns="http://www.w3.org/2000/svg">
 <!-- Created with Method Draw - http://github.com/duopixel/Method-Draw/ -->
 <g>
  <title>background</title>
  <rect fill="none" id="canvas_background" height="202" width="202" y="-1" x="-1"/>
  <g display="none" overflow="visible" y="0" x="0" height="100%" width="100%" id="canvasGrid">
   <rect fill="url(#gridpattern)" stroke-width="0" y="0" x="0" height="100%" width="100%"/>
  </g>
 </g>
 <g>
  <title>Layer 1</title>
  <path stroke="#e37222" id="svg_5" d="m106.168135,36.22284c3.141696,-5.68938 8.889747,-13.100722 -0.986066,-14.888687c-2.751017,-1.412246 -5.502929,-3.911204 -8.250401,-1.127408c-6.113025,2.414873 -11.412282,5.791977 -4.982538,12.112282c2.851264,4.081663 5.444587,12.987441 8.67436,13.968269c1.927638,-3.310125 3.733415,-6.68978 5.544644,-10.064461l0,0.000006zm-13.504638,15.709103c-5.611831,-10.016031 -10.127811,-20.761388 -16.996432,-30.001342c-8.35396,-8.91945 -24.814281,-4.94345 -28.554933,6.561404c-4.969007,11.374528 5.752474,24.955344 17.88974,23.531659c9.210301,0.15426 18.473007,0.569007 27.661625,-0.091722zm46.632863,0.338126c11.935734,-1.599952 18.799602,-16.626056 12.003848,-26.603022c-6.022174,-10.647189 -23.347685,-11.018363 -29.396123,-0.198471c-5.237321,8.747372 -9.78303,17.888005 -14.589031,26.875188c10.625116,0.607507 21.350161,0.465803 31.981306,-0.073701l0,0.000006zm19.76677,12.811174c4.068959,-3.580322 19.825689,-7.801217 7.892322,-11.201475c-2.956161,-0.838872 -6.40264,-4.687232 -9.059464,-3.634101c-5.769213,7.172984 -14.639909,11.380999 -23.90172,10.94024c-1.813094,0.595982 -11.060791,-0.906428 -8.562153,0.800053c6.533874,3.725633 12.903203,7.771684 19.661536,11.078546c4.73368,-2.521082 9.327839,-5.298223 13.969478,-7.983268l0,0.000006zm-92.962016,2.027034c3.479638,-2.027034 6.959269,-4.054074 10.438895,-6.081108c-10.636102,-0.528494 -22.808175,1.004577 -30.846336,-7.550151c-2.266286,-2.537618 -4.439482,-5.44292 -7.580448,-2.248156c-3.762224,2.591943 -15.334366,5.248081 -6.424439,8.412135c7.758543,4.583182 15.462515,9.278185 23.412818,13.522289c3.788408,-1.776581 7.359516,-3.996952 10.999516,-6.055003l-0.000006,-0.000006zm50.994872,22.617472c4.509215,-3.623073 15.431227,-7.074853 15.796114,-10.962738c-10.194882,-5.866659 -20.092813,-12.398555 -30.758675,-17.357278c-3.670527,-1.39257 -6.646462,0.750174 -9.600973,2.611283c-8.736586,5.196712 -17.683375,10.070902 -26.135675,15.721131c11.054062,6.835484 22.240997,13.468847 33.536753,19.897098c5.761448,-3.231523 11.448409,-6.595133 17.162456,-9.90949l0,-0.000006zm45.238246,11.308727c4.678048,-2.951648 9.356102,-5.903289 14.034175,-8.854955c-0.038298,-9.886023 0.119593,-19.776174 -0.150868,-29.658744c-9.441635,5.268316 -18.748994,10.799682 -27.899265,16.559366c-1.000768,10.196426 -0.493226,20.561476 -0.275717,30.809289c4.828315,-2.844635 9.539325,-5.887133 14.291675,-8.854955zm-109.713602,-6.228351c0.47512,-8.427015 1.4993,-18.033346 -8.663344,-20.529667c-6.41776,-2.993233 -15.313334,-10.662486 -20.257561,-10.585559c-0.154045,9.495344 -0.072517,18.992437 -0.089188,28.488615c9.480099,5.916108 18.791972,12.117036 28.476674,17.693926c0.939064,-4.894731 0.325184,-10.08342 0.533419,-15.067315zm67.886856,32.628357c5.607311,-3.540036 11.214615,-7.080073 16.821926,-10.620109c-0.025963,-10.20616 0.396058,-20.426997 -0.065169,-30.622196c-6.162467,1.767184 -13.210821,7.229604 -19.703318,10.622507c-4.861473,2.847677 -9.72297,5.695373 -14.584449,8.543062c0.095868,10.897685 -0.262076,21.815273 0.354533,32.69682c5.811712,-3.395756 11.46895,-7.052999 17.176471,-10.620085l0.000006,0zm-23.505423,-5.728335c0,-5.449471 0,-10.898948 0,-16.348401c-11.256557,-6.578302 -22.477084,-13.218959 -33.777527,-19.721628c-0.624914,10.420921 -0.267798,20.881029 -0.362035,31.319953c11.254048,7.046062 22.391478,14.284547 33.787886,21.098496c0.443464,-5.430163 0.281538,-10.903653 0.351675,-16.348419zm65.611964,21.906712c4.587498,-3.054802 9.174996,-6.109611 13.762512,-9.164413c-0.191411,-9.68516 0.472562,-19.501383 -0.493134,-29.079672c-9.540263,5.443092 -18.747571,11.639928 -28.117798,17.450606c0.225103,10.020938 -0.462202,20.156604 0.572944,30.091916c4.839877,-2.970674 9.532314,-6.177068 14.275476,-9.298438zm-110.094687,-5.42966c-0.037341,-5.078058 -0.074725,-10.156122 -0.112073,-15.234173c-9.477615,-5.929522 -18.835827,-12.057399 -28.455826,-17.753783c-0.602036,9.728789 -0.258886,19.495495 -0.34943,29.241654c9.561105,6.328911 19.014651,12.825538 28.703954,18.956899c0.371241,-5.055088 0.187001,-10.144358 0.213375,-15.210596zm68.230471,33.370846c5.568828,-3.698461 11.137657,-7.396916 16.706485,-11.095364c-0.012936,-10.312694 0.196588,-20.629828 -0.080516,-30.938995c-11.335919,6.989627 -22.596002,14.107906 -33.773049,21.348746c-1.263169,9.957915 -0.444145,20.22484 -0.445991,30.291595c3.46902,2.11299 12.338674,-7.251531 17.593071,-9.605988l0,0.000006zm-23.747754,-4.414674c-0.6734,-7.110949 2.896187,-17.120006 -6.14154,-19.876704c-9.114212,-5.772748 -18.191788,-11.6085 -27.42593,-17.188015c-1.345911,9.762609 0.061735,19.932986 -0.972167,29.815028c11.073487,8.005005 22.436345,15.65763 34.006205,22.925299c0.927944,-5.093005 0.350798,-10.487838 0.533432,-15.675614l0,0.000006zm-38.72725,-1.879816c-13.477957,-8.997205 -26.955907,-17.994404 -40.433852,-26.991591c0.015279,-27.766612 -0.368352,-55.539898 0.124457,-83.301297c6.749114,-4.164344 13.931253,-7.578096 20.877065,-11.398786c-4.486288,-12.842633 1.986539,-28.449152 14.995148,-33.256283c10.904881,-4.474402 24.049834,-0.436583 31.002215,8.98281c5.049805,-2.589864 10.099621,-5.179728 15.149432,-7.769592c5.076921,2.613294 10.153873,5.226589 15.230788,7.839877c7.274768,-8.629313 19.738378,-13.553853 30.539196,-8.71774c12.964668,4.556954 20.031324,20.128592 15.381962,32.951063c6.996923,3.950349 14.604212,7.037291 21.019597,11.857726c0.284402,27.602159 0.002545,55.208384 -0.023246,82.812235c-26.817859,17.747699 -53.201135,36.172871 -80.454386,53.245777c-7.924787,-0.002134 -14.765022,-8.606753 -22.118668,-12.095433c-7.109413,-4.70026 -14.200879,-9.427617 -21.289739,-14.158759l0.000031,-0.000006z" fill-opacity="null" stroke-opacity="0.32" stroke-width="1.5" fill="none"/>
  <text font-weight="normal" xml:space="preserve" text-anchor="start" font-family="Junction, sans-serif" font-size="40" id="svg_7" y="114.003571" x="15.515624" stroke-opacity="null" stroke-width="0" stroke="#000" fill="#e37222">Birthbook</text>
 </g>
</svg>