<svg xmlns="http://www.w3.org/2000/svg" xmlns:xlink="http://www.w3.org/1999/xlink" xmlns:fi="http://pattern.flaticon.com/" x="0" y="0" width="700" height="350" viewBox="0 0 700 350"><rect x="0px" y="0px" width="100%" height="100%" opacity="1" fill="#ffffff"/><defs><g transform="matrix(0.1697916491523753 0.04549553527192747 -0.04549553527192747 0.1697916491523753 -31.819805153394643 -55.11351921262151)" id="L1_530"><path d="M315.204,394.776l-50.901,80.311V340.441h-16.605v134.647l-50.9-80.311l-14.026,8.889l66.216,104.477  c1.522,2.402,4.169,3.858,7.013,3.858c2.844,0,5.49-1.456,7.013-3.858l66.217-104.477L315.204,394.776z" fill="#9ad6d4"/><path d="M191.676,212.2c-29.955-47.4-92.664-61.542-140.063-31.587  c-47.4,29.954-61.542,92.663-31.587,140.062c28.981,45.859,105.122,65.462,157.853,67.839l0.493,30.603l34.278-21.724  l-27.452-13.502C205.682,335.243,220.657,258.059,191.676,212.2z" fill="#ffaa0e"/><path d="M320.324,212.2c29.955-47.4,92.664-61.542,140.063-31.587c47.4,29.955,61.542,92.664,31.587,140.063  c-28.981,45.859-105.122,65.462-157.853,67.839l-0.493,30.603l-34.278-21.724l27.452-13.502  C306.318,335.243,291.343,258.059,320.324,212.2z" fill="#57bab7"/><path d="M47.996,311.416c-2.75,0-5.44-1.365-7.021-3.859c-22.615-35.684-11.985-83.116,23.698-105.732  c3.875-2.453,9.003-1.304,11.458,2.568c2.454,3.873,1.305,9.002-2.568,11.458C45.613,233.565,37.286,270.717,55,298.667  c2.454,3.874,1.305,9.003-2.568,11.458C51.054,310.998,49.516,311.416,47.996,311.416z" fill="#ffffff"/><path d="M389.764,133.764C389.764,59.888,329.876,0,256,0S122.236,59.888,122.236,133.764  c0,71.377,70.811,146.691,127.827,186.496l-19.108,31.25h50.092l-19.108-31.25C318.954,280.455,389.764,205.141,389.764,133.764z" fill="#ff3776"/><path d="M155.447,142.053C155.447,142.053,155.445,142.053,155.447,142.053c-4.586,0-8.303-3.719-8.303-8.304  C147.153,73.734,195.986,24.908,256,24.908c4.585,0,8.303,3.717,8.303,8.303s-3.717,8.303-8.303,8.303  c-50.86,0-92.243,41.377-92.251,92.237C163.748,138.336,160.031,142.053,155.447,142.053z" fill="#ffffff"/></g><g transform="matrix(0.0390625 0 0 0.0390625 77.5 340)" id="L1_531"><g><path d="M90.021,206.01c-24.046,0-46.652,9.363-63.655,26.367C9.363,249.379,0,271.986,0,296.032   c0,24.046,9.363,46.652,26.367,63.656c17.003,17.003,39.61,26.367,63.655,26.366h49.305c32.814,34.647,79.25,56.264,130.737,56.264   c99.435,0,180.044-80.609,180.044-180.044V206.01l-180.044-11.253L90.021,206.01z M90.022,352.295   c-15.028,0-29.157-5.853-39.784-16.48c-10.627-10.627-16.48-24.756-16.48-39.784s5.853-29.158,16.479-39.784   c10.626-10.626,24.755-16.48,39.783-16.48v22.505c0,32.795,8.773,63.54,24.092,90.022H90.022z" fill="#fe5d26"/><path d="M39.385,471.968L46,495.123c2.55,8.927,12.233,16.23,21.516,16.23h405.099   c9.284,0,18.965-7.303,21.516-16.23l6.616-23.155H39.385z" fill="#fe5d26"/></g><path d="M503.56,480.408H36.571c-4.662,0-8.44-3.778-8.44-8.44c0-4.662,3.778-8.44,8.44-8.44H503.56  c4.662,0,8.44,3.778,8.44,8.44C512,476.63,508.222,480.408,503.56,480.408z" fill="#f63e31"/><g><path d="M230.68,146.933c-4.661,0-8.44-3.778-8.44-8.44c-0.001-12.853,3.497-19.556,6.584-25.471   c2.608-5,4.669-8.948,4.669-17.661c0-8.715-2.06-12.665-4.669-17.665c-3.086-5.916-6.584-12.619-6.584-25.473   c-0.001-12.854,3.497-19.558,6.584-25.474c2.608-5,4.669-8.949,4.669-17.663c0-4.662,3.778-8.44,8.44-8.44   c4.662,0,8.44,3.778,8.44,8.44c0,12.853-3.497,19.557-6.584,25.472c-2.608,5-4.669,8.95-4.669,17.666s2.06,12.665,4.669,17.665   c3.086,5.914,6.583,12.619,6.584,25.473c0,12.853-3.497,19.556-6.584,25.471c-2.608,4.998-4.669,8.947-4.669,17.661   C239.12,143.154,235.342,146.933,230.68,146.933z" fill="#e4b780"/><path d="M298.197,146.933c-4.661,0-8.44-3.778-8.44-8.44c-0.001-12.853,3.497-19.556,6.584-25.471   c2.608-5,4.669-8.948,4.669-17.661c0-8.715-2.06-12.665-4.669-17.665c-3.086-5.916-6.584-12.619-6.584-25.473   c-0.001-12.854,3.497-19.558,6.584-25.474c2.608-5,4.669-8.949,4.669-17.663c0-4.662,3.778-8.44,8.44-8.44s8.44,3.778,8.44,8.44   c0,12.853-3.497,19.557-6.584,25.472c-2.608,5-4.669,8.95-4.669,17.666s2.06,12.665,4.669,17.665   c3.086,5.914,6.583,12.619,6.584,25.473c0,12.853-3.497,19.556-6.584,25.471c-2.608,4.998-4.669,8.947-4.669,17.661   C306.636,143.154,302.859,146.933,298.197,146.933z" fill="#e4b780"/></g><path d="M309.449,307.284c0,9.322,7.557,16.879,16.879,16.879s16.879-7.557,16.879-16.879V206.01h33.758  v67.516c0,9.322,7.557,16.879,16.879,16.879s16.879-7.557,16.879-16.879V206.01h39.385v-33.758H90.021v33.758h219.429V307.284z" fill="#991d06"/></g><g transform="matrix(0.078125 0 0 0.078125 155 330)" id="L1_532"><path d="M509.54,89.156c-3.28-3.28-8.597-3.28-11.878,0l-98.409,98.409l-12.354-12.354l98.409-98.409  c3.28-3.28,3.28-8.597,0-11.878c-3.28-3.28-8.597-3.28-11.878,0l-98.409,98.409l-12.354-12.354l98.409-98.409  c3.28-3.28,3.28-8.597,0-11.878c-3.28-3.28-8.597-3.28-11.878,0L350.787,139.1l-12.354-12.354l98.409-98.409  c3.28-3.28,3.28-8.597,0-11.878c-3.28-3.28-8.597-3.28-11.878,0L302.799,138.624c-18.412,18.411-22.297,45.835-11.68,68.063  L42.115,427.701c-0.835,0.709-1.652,1.451-2.44,2.24c-15.57,15.569-15.57,40.814,0,56.384c15.57,15.569,40.814,15.569,56.384,0  c0.788-0.788,1.531-1.605,2.24-2.44L319.312,234.88c22.228,10.616,49.653,6.73,68.064-11.68L509.54,101.035  C512.82,97.755,512.82,92.438,509.54,89.156z" fill="#57bab7"/><path d="M345.05,215.511c-5.048,0-10.133-1.101-14.88-3.369c-4.185-1.999-5.958-7.014-3.959-11.199  c1.999-4.186,7.014-5.958,11.199-3.959c6.798,3.244,14.944,1.844,20.272-3.481c3.282-3.28,8.601-3.279,11.877,0.001  c3.28,3.281,3.279,8.599-0.001,11.877C362.926,212.013,354.045,215.511,345.05,215.511z" fill="#ffffff"/><path d="M181.559,101.035C122.765,42.241,50.84,25.013,17.105,58.748S0.599,164.406,59.394,223.2  c28.865,28.865,73.066,33.009,106.361,12.478l220.305,248.207c0.709,0.835,1.451,1.651,2.24,2.44  c15.569,15.569,40.814,15.569,56.384,0c15.569-15.57,15.569-40.814,0-56.384c-0.788-0.788-1.604-1.531-2.44-2.24L194.035,207.396  C214.567,174.101,210.424,129.901,181.559,101.035z" fill="#9ad6d4"/><path d="M120.444,223.29c-16.331,0-31.686-6.36-43.232-17.906c-25.075-25.076-42.556-53.471-49.226-79.96  c-5.437-21.594-2.973-38.947,6.936-48.859c3.281-3.281,8.597-3.28,11.877-0.001c3.281,3.28,3.281,8.598,0.001,11.877  c-5.324,5.325-6.291,17.923-2.525,32.88c5.94,23.588,21.854,49.223,44.814,72.183c8.375,8.374,19.51,12.986,31.355,12.986  c4.64,0,8.399,3.759,8.399,8.399C128.844,219.53,125.083,223.29,120.444,223.29z M165.433,198.162c-1.504,0-3.026-0.403-4.401-1.251  c-3.948-2.435-5.175-7.609-2.74-11.557c10.824-17.554,8.182-40.015-6.427-54.625c-3.28-3.28-3.28-8.598,0.001-11.877  c3.28-3.28,8.598-3.279,11.877,0.001c20.136,20.137,23.774,51.111,8.846,75.319C171.002,196.744,168.249,198.162,165.433,198.162z" fill="#ffffff"/></g><g transform="matrix(0.0390625 0 0 0.0390625 252.5 340)" id="L1_533"><g><path d="M147.147,29.165l14.708,25.48l188.306,0.008l14.693-25.445   C295.082-11.081,212.277-8.353,147.147,29.165z" fill="#fe841a"/><path d="M114.018,48.332C44.242,88.614,5.202,161.689,5.128,236.852l29.46,0.001l94.136-163.047   L114.018,48.332z" fill="#fe841a"/><path d="M34.587,275.128l-29.423-0.001C5.16,355.696,48.926,426.043,113.982,463.688l14.726-25.504   L34.587,275.128z" fill="#fe841a"/><path d="M350.145,457.356l-188.306-0.008l-14.693,25.445c69.773,40.287,152.578,37.559,217.707,0.042   L350.145,457.356z" fill="#fe841a"/><path d="M477.413,275.146l-94.136,163.047l14.705,25.474c69.776-40.28,108.816-113.357,108.889-188.52   L477.413,275.146z" fill="#fe841a"/><path d="M398.019,48.312l-14.728,25.504l94.122,163.055l29.423,0.001   C506.84,156.305,463.075,85.957,398.019,48.312z" fill="#fe841a"/></g><g><path d="M350.162,54.651C321.569,41.257,289.663,33.758,256,33.758c-33.656,0-65.556,7.495-94.145,20.885   L256,217.725L350.162,54.651z" fill="#ffe368"/><path d="M128.724,73.806c-52.5,36.744-88.378,95.593-94.135,163.047l188.265,0.009L128.724,73.806z" fill="#ffe368"/><path d="M34.587,275.128c5.751,67.455,41.625,126.308,94.121,163.055l94.145-163.046L34.587,275.128z" fill="#ffe368"/><path d="M161.838,457.349c28.593,13.394,60.499,20.893,94.162,20.893c33.656,0,65.556-7.495,94.145-20.885   L256,294.275L161.838,457.349z" fill="#ffe368"/><path d="M477.413,275.146l-188.265-0.009l94.129,163.056C435.776,401.449,471.655,342.6,477.413,275.146z" fill="#ffe368"/><path d="M477.414,236.871c-5.751-67.455-41.625-126.308-94.122-163.055l-94.145,163.046L477.414,236.871z" fill="#ffe368"/></g><g><circle cx="256" cy="140" r="8" fill="#ad4a38"/><circle cx="73" cy="206" r="8" fill="#ad4a38"/><circle cx="147" cy="205" r="8" fill="#ad4a38"/><circle cx="160" cy="324" r="8" fill="#ad4a38"/><circle cx="250" cy="363" r="8" fill="#ad4a38"/><circle cx="350" cy="311" r="8" fill="#ad4a38"/><circle cx="390" cy="388" r="8" fill="#ad4a38"/><circle cx="390" cy="122" r="8" fill="#ad4a38"/></g><g><circle cx="256" cy="88" r="20" fill="#f63e31"/><circle cx="110" cy="172" r="20" fill="#f63e31"/><circle cx="110" cy="339" r="20" fill="#f63e31"/><circle cx="256" cy="423" r="20" fill="#f63e31"/><circle cx="401" cy="339" r="20" fill="#f63e31"/><circle cx="401" cy="172" r="20" fill="#f63e31"/></g></g><g transform="matrix(0.078125 0 0 0.078125 67.5 67.5)" id="L1_534"><path d="M414.324,179.987c-9.365-10.287-25.001-12.034-38.862-5.546  c-4.835-38.201-28.221-70.603-60.832-87.951H205.616c-32.612,17.348-55.997,49.751-60.832,87.951  c-13.862-6.487-29.499-4.74-38.862,5.546c-11.998,13.18-9.065,35.388,6.55,49.602c9.76,8.884,22.934,12.199,33.794,10.476  c10.925,52.868,57.749,92.613,113.858,92.613s102.932-39.746,113.856-92.617c10.861,1.726,24.036-1.589,33.795-10.473  C423.389,215.374,426.322,193.167,414.324,179.987z" fill="#ffd3c7"/><g><path d="M209.791,191.523c-4.067,0-7.463-2.878-8.262-6.708h-9.41c-4.662,0-8.44-3.778-8.44-8.44   s3.778-8.44,8.44-8.44h17.671c4.662,0,8.44,3.778,8.44,8.44v6.708C218.23,187.745,214.451,191.523,209.791,191.523z" fill="#991d06"/><path d="M310.453,191.523c-4.662,0-8.44-3.778-8.44-8.44v-6.708c0-4.662,3.778-8.44,8.44-8.44h17.672   c4.662,0,8.44,3.778,8.44,8.44s-3.778,8.44-8.44,8.44h-9.411C317.915,188.646,314.52,191.523,310.453,191.523z" fill="#991d06"/></g><path d="M260.122,284.054c-38.291,0-71.121-28.58-76.363-66.48c-0.638-4.617,2.587-8.877,7.204-9.516  c4.6-0.63,8.877,2.587,9.516,7.204c4.094,29.596,29.734,51.913,59.643,51.913s55.549-22.318,59.643-51.913  c0.638-4.618,4.91-7.835,9.516-7.204c4.618,0.639,7.843,4.899,7.204,9.516C331.243,255.473,298.413,284.054,260.122,284.054z" fill="#ff709d"/><circle cx="260" cy="206" r="22" fill="#f63e31"/><g><path d="M260.122,0c-30.103,0-54.506,24.404-54.506,54.506v31.983h109.013V54.506   C314.628,24.404,290.225,0,260.122,0z" fill="#ff3776"/><path d="M396.017,420.556H115.983c-26.917,24.472-47.395,55.9-58.594,91.444h397.222   C443.412,476.456,422.933,445.028,396.017,420.556z" fill="#ff3776"/></g><path d="M366.904,398.406H145.096c-10.356,6.531-20.096,13.95-29.114,22.15  c1.7,4.676,3.817,9.213,6.34,13.583c13.917,24.108,38.16,39.378,64.731,42.239c15.765,21.581,41.111,34.94,68.947,34.94  c27.836,0,53.182-13.359,68.947-34.94c26.571-2.862,50.814-18.132,64.731-42.239c2.523-4.371,4.639-8.907,6.34-13.583  C387,412.357,377.26,404.937,366.904,398.406z" fill="#ff709d"/><path d="M206.909,441.99c6.765,20.65,26.181,35.57,49.091,35.57c22.911,0,42.327-14.92,49.091-35.57  c21.265,4.466,43.895-4.888,55.35-24.729c3.461-5.994,5.584-12.395,6.461-18.854c-32.109-20.248-70.138-31.965-110.904-31.965  s-78.794,11.716-110.904,31.965c0.878,6.459,3.001,12.86,6.461,18.854C163.014,437.102,185.643,446.456,206.909,441.99z" fill="#ffe368"/><path d="M344.6,94.928H175.643c-4.662,0-8.44-3.778-8.44-8.44s3.778-8.44,8.44-8.44H344.6  c4.662,0,8.44,3.778,8.44,8.44S349.262,94.928,344.6,94.928z" fill="#e60048"/></g><g transform="matrix(0.078125 0 0 0.078125 242.5 67.5)" id="L1_535"><path d="M488.87,342.948l-41.549-8.45l-3.177,15.619l41.549,8.45c0.537,0.109,1.071,0.16,1.597,0.16  c3.711,0,7.033-2.604,7.802-6.382C495.968,348.033,493.183,343.825,488.87,342.948z" fill="#ff3776"/><path d="M499.271,306.29l-42.164-5.145l-1.93,15.821l42.164,5.145c0.328,0.04,0.652,0.061,0.975,0.061  c3.97,0,7.408-2.965,7.901-7.006C506.75,310.797,503.64,306.823,499.271,306.29z" fill="#e60048"/><path d="M504.353,267.67l-42.491-1.728l-0.647,15.926l42.491,1.728c0.111,0.004,0.22,0.006,0.329,0.006  c4.253,0,7.784-3.358,7.958-7.646C512.172,271.56,508.752,267.849,504.353,267.67z" fill="#ff3776"/><path d="M461.218,230.133l0.319,15.933c0.109,0,0.219-0.002,0.329-0.006l42.489-1.728  c4.398-0.18,7.818-3.889,7.639-8.287c-0.179-4.398-3.881-7.817-8.287-7.639L461.218,230.133z" fill="#e60048"/><path d="M457.106,210.857l42.168-5.145c4.368-0.532,7.479-4.507,6.945-8.876  c-0.533-4.369-4.51-7.489-8.876-6.945l-42.168,5.145L457.106,210.857z" fill="#ff3776"/><path d="M488.873,169.053c4.313-0.877,7.098-5.085,6.221-9.399c-0.877-4.313-5.076-7.096-9.399-6.221  l-41.546,8.45l3.177,15.619L488.873,169.053z" fill="#e60048"/><path d="M452.425,160.366h-0.814l-30.158,6.133l-43.79,170.096l73.948,15.041l0.816-0.005  C479.659,290.953,479.658,221.042,452.425,160.366z" fill="#ffe368"/><path d="M0,234.749 0,277.253 106.261,287.857 116.887,256.001 106.261,224.144z" fill="#e60048"/><g><path d="M106.481,224.123 106.261,224.144 106.261,287.857 106.481,287.879 138.14,287.879    148.766,256.001 138.14,224.123z" fill="#ff3776"/><path d="M421.453,166.499l-76.098,15.478l-35.829,140.76l68.137,13.859   C413.705,287.897,429.521,226.647,421.453,166.499z" fill="#ff3776"/></g><path d="M345.355,181.977l-77.128,15.687l-28.081,110.961l69.379,14.112  C336.03,280.911,348.642,231.467,345.355,181.977z" fill="#ffe368"/><path d="M189.465,213.683l-20.359,80.494l71.039,14.448c18.359-34.035,28.038-72.238,28.081-110.962  L189.465,213.683z" fill="#ff3776"/><path d="M138.14,224.123v63.757l30.968,6.298c11.507-25.379,18.414-52.667,20.359-80.494L138.14,224.123z" fill="#ffe368"/></g><g transform="matrix(0.1367184817790985 0 0 0.1367184817790985 315 140)" id="L1_536"><path d="M86.332,425.67c-3.242-3.242-3.242-8.499,0-11.742l106.392-106.392c3.242-3.242,8.5-3.242,11.742,0  c3.242,3.242,3.242,8.499,0,11.742L98.074,425.67C94.83,428.912,89.574,428.912,86.332,425.67z" fill="#e4b780"/><rect x="171px" y="245px" width="131px" height="59px" transform="matrix(-0.7071 0.7071 -0.7071 -0.7071 599.4513 300.852)" fill="#ff709d"/><path d="M229.866,189.351 322.651,282.134 356.814,247.971 326.077,185.923 264.029,155.187z" fill="#ffd3c7"/><path d="M264.029,155.187 356.814,247.971 390.977,213.808 360.241,151.76 298.192,121.024z" fill="#f63e31"/><path d="M332.356,86.861 298.192,121.024 390.977,213.808 425.14,179.645 394.404,117.597z" fill="#ffd3c7"/><path d="M459.303,145.481 428.567,83.434 366.519,52.698 332.356,86.861 425.14,179.645z" fill="#f63e31"/><path d="M493.466,111.318 464.222,47.78 400.682,18.534 366.519,52.698 459.303,145.481z" fill="#ffd3c7"/><path d="M27.006,484.994c-3.242-3.242-3.242-8.499,0-11.742l28.214-28.214c3.242-3.242,8.5-3.242,11.742,0  c3.242,3.242,3.242,8.499,0,11.742l-28.214,28.214C35.506,488.237,30.248,488.237,27.006,484.994z" fill="#ffd102"/><path d="M86.332,509.568c-1.502-1.502-2.432-3.578-2.432-5.871v-39.902c0-4.586,3.717-8.303,8.304-8.304  c4.584,0.001,8.302,3.719,8.303,8.303v39.902c0,4.586-3.717,8.303-8.304,8.304C89.909,512,87.834,511.07,86.332,509.568z" fill="#ffaa0e"/><path d="M145.657,484.995l-28.215-28.215c-3.242-3.242-3.242-8.499,0-11.742c3.242-3.242,8.5-3.242,11.742,0  l28.215,28.215c3.242,3.242,3.242,8.499,0,11.742C154.156,488.238,148.9,488.238,145.657,484.995z" fill="#ffd102"/><g><path d="M133.299,425.669c-1.502-1.502-2.432-3.578-2.432-5.871c0-4.586,3.717-8.303,8.304-8.304h36.932   c4.585,0,8.302,3.72,8.303,8.303c0,4.586-3.717,8.303-8.304,8.304H139.17C136.877,428.101,134.802,427.171,133.299,425.669z" fill="#ffaa0e"/><path d="M86.332,378.704c-1.502-1.502-2.432-3.578-2.432-5.871v-36.935c0-4.586,3.717-8.303,8.304-8.304   c4.584,0.001,8.302,3.719,8.303,8.303v36.935c0,4.586-3.717,8.303-8.304,8.304C89.911,381.136,87.835,380.208,86.332,378.704z" fill="#ffaa0e"/></g><path d="M55.22,394.558l-28.215-28.215c-3.242-3.242-3.242-8.499,0-11.742c3.242-3.242,8.5-3.242,11.742,0  l28.215,28.215c3.242,3.242,3.242,8.499,0,11.742S58.462,397.8,55.22,394.558z" fill="#ffd102"/><path d="M2.432,425.669C0.93,424.166,0,422.091,0,419.798c0-4.586,3.717-8.303,8.304-8.304h39.902  c4.584,0.001,8.302,3.719,8.303,8.303c0,4.586-3.717,8.303-8.304,8.304H8.303C6.01,428.101,3.934,427.172,2.432,425.669z" fill="#ffaa0e"/><path d="M511.689,14.681c1.837-9.739-4.63-16.205-14.368-14.368l-96.639,18.223l92.784,92.784L511.689,14.681  z" fill="#e60048"/></g><g transform="matrix(0.13206017156295854 -0.03538541632261026 0.03538541632261026 0.13206017156295854 132.1339295012944 150.25126265847084)" id="L1_537"><path d="M422.415,24.385C406.115,8.085,397.901,16.3,381.601,0c0,0-36.256,61.548-30.925,119.533  l13.933,13.931l66.07-98.35C428.907,31.861,426.395,28.365,422.415,24.385z" fill="#ff709d"/><path d="M487.615,89.585c-3.981-3.981-7.477-6.494-10.729-8.264l-98.346,66.074l13.933,13.931  C450.457,166.653,512,130.399,512,130.399C495.7,114.099,503.915,105.885,487.615,89.585z" fill="#e60048"/><path d="M446.8,65.2c-12.32-12.32-10.642-20.022-16.122-30.086l-66.07,98.35l13.933,13.931l98.346-66.074  C466.822,75.841,459.12,77.519,446.8,65.2z" fill="#ff3776"/><path d="M89.585,487.615c16.3,16.3,24.514,8.085,40.814,24.385c0,0,36.366-61.743,30.897-119.824  l-13.797-13.799l-66.177,98.51C83.093,480.139,85.605,483.635,89.585,487.615z" fill="#e60048"/><path d="M35.114,430.679c10.063,5.48,17.767,3.802,30.086,16.122c12.32,12.319,10.642,20.023,16.122,30.086  l66.177-98.51l-13.878-13.88L35.114,430.679z" fill="#ff3776"/><g><path d="M119.831,350.704C61.747,345.232,0,381.601,0,381.601c16.3,16.3,8.085,24.514,24.385,40.814   c3.981,3.981,7.477,6.494,10.729,8.264l98.507-66.182L119.831,350.704z" fill="#ff709d"/><path d="M422.07,255.929c0-91.667-74.311-165.978-165.978-165.978c-23.226,0-45.334,4.778-65.405,13.393   c-52.278,102.168-5.145,246.8,130.584,305.269C380.536,383.281,422.07,324.458,422.07,255.929z" fill="#ff709d"/></g><path d="M90.114,255.929c0,91.667,74.311,165.978,165.978,165.978c23.138,0,45.167-4.74,65.178-13.293  c-108.738-109.002-21.768-196.259-130.583-305.27C131.542,128.729,90.114,187.488,90.114,255.929z" fill="#ff3776"/></g><g transform="matrix(0.09765625 0 0 0.09765625 62.5 237.5)" id="L1_538"><path d="M210.989,60.801c0-23.962,18.52-49.222,45.011-60.801c26.491,11.578,45.011,36.839,45.011,60.801  c0,24.858-20.153,45.011-45.011,45.011S210.989,85.659,210.989,60.801L210.989,60.801z" fill="#ffd102"/><path d="M256,85.869c-4.661,0-8.44,3.779-8.44,8.44v45.011h16.879V94.308  C264.44,89.647,260.661,85.869,256,85.869z" fill="#459492"/><path d="M267.253,128.066h-22.505c-6.189,0-11.253,5.064-11.253,11.253v96.426h45.011v-96.426  C278.505,133.13,273.442,128.066,267.253,128.066z" fill="#9ad6d4"/><path d="M41.587,303.262 41.587,472.615 463.19,472.615 463.19,303.262 256,280.756z" fill="#ad4a38"/><path d="M418.179,224.492H86.598c-24.756,0-45.011,20.255-45.011,45.011v33.758  c28.373,0,33.83,19.289,53.386,26.711c-0.003,0-0.003,57.709-0.003,57.709c0,9.322,7.557,16.879,16.879,16.879  s16.879-7.557,16.879-16.879V329.97c19.554-7.423,25.014-26.71,53.384-26.71c35.133,0,35.133,29.573,70.267,29.573  c35.132,0,35.132-29.573,70.264-29.573c35.137,0,35.137,29.573,70.275,29.573s35.137-29.573,70.273-29.573v-33.758  C463.19,244.747,442.935,224.492,418.179,224.492z" fill="#991d06"/><path d="M11.253,472.615l6.615,23.155C20.419,504.697,30.101,512,39.385,512h433.231  c9.284,0,18.965-7.303,21.516-16.23l6.616-23.155H11.253z" fill="#9ad6d4"/><path d="M503.56,481.055H8.44c-4.661,0-8.44-3.779-8.44-8.44s3.779-8.44,8.44-8.44H503.56  c4.661,0,8.44,3.779,8.44,8.44S508.221,481.055,503.56,481.055z" fill="#57bab7"/></g><g transform="matrix(0.17578227818012238 0 0 0.17578227818012238 217.5 217.5)" id="L1_539"><path d="M84.971,68.267 392.886,79.52 392.886,0z" fill="#ff709d"/><rect x="84px" y="68px" width="342px" height="443px" fill="#ffd3c7"/><path d="M247.555,389.272v77.717c0,4.662,3.779,8.44,8.44,8.44c4.661,0,8.44-3.778,8.44-8.44v-77.717H247.555  z" fill="#ffffff"/><path d="M360.083,217.366c0-57.486-46.602-104.088-104.088-104.088S151.907,159.88,151.907,217.366  c0,54.569,53.188,112.094,97.128,143.468l-21.951,36.878h57.822l-21.951-36.878C306.895,329.46,360.083,271.935,360.083,217.366z" fill="#ff3776"/><path d="M185.665,225.806c-4.661,0-8.44-3.778-8.44-8.44c0-43.433,35.336-78.769,78.769-78.769  c4.661,0,8.44,3.778,8.44,8.44s-3.779,8.44-8.44,8.44c-34.126,0-61.89,27.764-61.89,61.89  C194.105,222.028,190.326,225.806,185.665,225.806z" fill="#ffffff"/></g></defs><g fi:class="KUsePattern"><pattern id="pattern_L1_530" width="350" height="350" patternUnits="userSpaceOnUse"><use xlink:href="#L1_530" x="-350" y="-350"/><use xlink:href="#L1_530" x="0" y="-350"/><use xlink:href="#L1_530" x="350" y="-350"/><use xlink:href="#L1_530" x="-350" y="0"/><use xlink:href="#L1_530" x="0" y="0"/><use xlink:href="#L1_530" x="350" y="0"/><use xlink:href="#L1_530" x="-350" y="350"/><use xlink:href="#L1_530" x="0" y="350"/><use xlink:href="#L1_530" x="350" y="350"/></pattern><rect x="0" y="0" width="100%" height="100%" fill="url(#pattern_L1_530)"/></g><g fi:class="KUsePattern"><pattern id="pattern_L1_531" width="350" height="350" patternUnits="userSpaceOnUse"><use xlink:href="#L1_531" x="-350" y="-350"/><use xlink:href="#L1_531" x="0" y="-350"/><use xlink:href="#L1_531" x="350" y="-350"/><use xlink:href="#L1_531" x="-350" y="0"/><use xlink:href="#L1_531" x="0" y="0"/><use xlink:href="#L1_531" x="350" y="0"/><use xlink:href="#L1_531" x="-350" y="350"/><use xlink:href="#L1_531" x="0" y="350"/><use xlink:href="#L1_531" x="350" y="350"/></pattern><rect x="0" y="0" width="100%" height="100%" fill="url(#pattern_L1_531)"/></g><g fi:class="KUsePattern"><pattern id="pattern_L1_532" width="350" height="350" patternUnits="userSpaceOnUse"><use xlink:href="#L1_532" x="-350" y="-350"/><use xlink:href="#L1_532" x="0" y="-350"/><use xlink:href="#L1_532" x="350" y="-350"/><use xlink:href="#L1_532" x="-350" y="0"/><use xlink:href="#L1_532" x="0" y="0"/><use xlink:href="#L1_532" x="350" y="0"/><use xlink:href="#L1_532" x="-350" y="350"/><use xlink:href="#L1_532" x="0" y="350"/><use xlink:href="#L1_532" x="350" y="350"/></pattern><rect x="0" y="0" width="100%" height="100%" fill="url(#pattern_L1_532)"/></g><g fi:class="KUsePattern"><pattern id="pattern_L1_533" width="350" height="350" patternUnits="userSpaceOnUse"><use xlink:href="#L1_533" x="-350" y="-350"/><use xlink:href="#L1_533" x="0" y="-350"/><use xlink:href="#L1_533" x="350" y="-350"/><use xlink:href="#L1_533" x="-350" y="0"/><use xlink:href="#L1_533" x="0" y="0"/><use xlink:href="#L1_533" x="350" y="0"/><use xlink:href="#L1_533" x="-350" y="350"/><use xlink:href="#L1_533" x="0" y="350"/><use xlink:href="#L1_533" x="350" y="350"/></pattern><rect x="0" y="0" width="100%" height="100%" fill="url(#pattern_L1_533)"/></g><g fi:class="KUsePattern"><pattern id="pattern_L1_534" width="350" height="350" patternUnits="userSpaceOnUse"><use xlink:href="#L1_534" x="-350" y="-350"/><use xlink:href="#L1_534" x="0" y="-350"/><use xlink:href="#L1_534" x="350" y="-350"/><use xlink:href="#L1_534" x="-350" y="0"/><use xlink:href="#L1_534" x="0" y="0"/><use xlink:href="#L1_534" x="350" y="0"/><use xlink:href="#L1_534" x="-350" y="350"/><use xlink:href="#L1_534" x="0" y="350"/><use xlink:href="#L1_534" x="350" y="350"/></pattern><rect x="0" y="0" width="100%" height="100%" fill="url(#pattern_L1_534)"/></g><g fi:class="KUsePattern"><pattern id="pattern_L1_535" width="350" height="350" patternUnits="userSpaceOnUse"><use xlink:href="#L1_535" x="-350" y="-350"/><use xlink:href="#L1_535" x="0" y="-350"/><use xlink:href="#L1_535" x="350" y="-350"/><use xlink:href="#L1_535" x="-350" y="0"/><use xlink:href="#L1_535" x="0" y="0"/><use xlink:href="#L1_535" x="350" y="0"/><use xlink:href="#L1_535" x="-350" y="350"/><use xlink:href="#L1_535" x="0" y="350"/><use xlink:href="#L1_535" x="350" y="350"/></pattern><rect x="0" y="0" width="100%" height="100%" fill="url(#pattern_L1_535)"/></g><g fi:class="KUsePattern"><pattern id="pattern_L1_536" width="350" height="350" patternUnits="userSpaceOnUse"><use xlink:href="#L1_536" x="-350" y="-350"/><use xlink:href="#L1_536" x="0" y="-350"/><use xlink:href="#L1_536" x="350" y="-350"/><use xlink:href="#L1_536" x="-350" y="0"/><use xlink:href="#L1_536" x="0" y="0"/><use xlink:href="#L1_536" x="350" y="0"/><use xlink:href="#L1_536" x="-350" y="350"/><use xlink:href="#L1_536" x="0" y="350"/><use xlink:href="#L1_536" x="350" y="350"/></pattern><rect x="0" y="0" width="100%" height="100%" fill="url(#pattern_L1_536)"/></g><g fi:class="KUsePattern"><pattern id="pattern_L1_537" width="350" height="350" patternUnits="userSpaceOnUse"><use xlink:href="#L1_537" x="-350" y="-350"/><use xlink:href="#L1_537" x="0" y="-350"/><use xlink:href="#L1_537" x="350" y="-350"/><use xlink:href="#L1_537" x="-350" y="0"/><use xlink:href="#L1_537" x="0" y="0"/><use xlink:href="#L1_537" x="350" y="0"/><use xlink:href="#L1_537" x="-350" y="350"/><use xlink:href="#L1_537" x="0" y="350"/><use xlink:href="#L1_537" x="350" y="350"/></pattern><rect x="0" y="0" width="100%" height="100%" fill="url(#pattern_L1_537)"/></g><g fi:class="KUsePattern"><pattern id="pattern_L1_538" width="350" height="350" patternUnits="userSpaceOnUse"><use xlink:href="#L1_538" x="-350" y="-350"/><use xlink:href="#L1_538" x="0" y="-350"/><use xlink:href="#L1_538" x="350" y="-350"/><use xlink:href="#L1_538" x="-350" y="0"/><use xlink:href="#L1_538" x="0" y="0"/><use xlink:href="#L1_538" x="350" y="0"/><use xlink:href="#L1_538" x="-350" y="350"/><use xlink:href="#L1_538" x="0" y="350"/><use xlink:href="#L1_538" x="350" y="350"/></pattern><rect x="0" y="0" width="100%" height="100%" fill="url(#pattern_L1_538)"/></g><g fi:class="KUsePattern"><pattern id="pattern_L1_539" width="350" height="350" patternUnits="userSpaceOnUse"><use xlink:href="#L1_539" x="-350" y="-350"/><use xlink:href="#L1_539" x="0" y="-350"/><use xlink:href="#L1_539" x="350" y="-350"/><use xlink:href="#L1_539" x="-350" y="0"/><use xlink:href="#L1_539" x="0" y="0"/><use xlink:href="#L1_539" x="350" y="0"/><use xlink:href="#L1_539" x="-350" y="350"/><use xlink:href="#L1_539" x="0" y="350"/><use xlink:href="#L1_539" x="350" y="350"/></pattern><rect x="0" y="0" width="100%" height="100%" fill="url(#pattern_L1_539)"/></g></svg>